<?xml version="1.0" encoding="UTF-8"?>
<svg width="88px" height="84px" viewBox="0 0 88 84" version="1.1" xmlns="http://www.w3.org/2000/svg" xmlns:xlink="http://www.w3.org/1999/xlink">
    <!-- Generator: Sketch 47.1 (45422) - http://www.bohemiancoding.com/sketch -->
    <title>Group</title>
    <desc>Created with Sketch.</desc>
    <defs></defs>
    <g id="Page-1" stroke="none" stroke-width="1" fill="none" fill-rule="evenodd">
        <g id="Group" transform="translate(5.000000, 4.000000)">
            <g id="noun_311490_cc">
                <path d="M39.2,66.7 C35.1,66.7 31.8,63.4 31.8,59.3 C31.8,55.2 35.1,51.9 39.2,51.9 C43.3,51.9 46.6,55.2 46.6,59.3 C46.6,63.4 43.3,66.7 39.2,66.7 Z M39.2,56.8 C37.9,56.8 36.8,57.9 36.8,59.2 C36.8,60.5 37.9,61.6 39.2,61.6 C40.5,61.6 41.6,60.5 41.6,59.2 C41.7,57.9 40.6,56.8 39.2,56.8 Z" id="Shape" fill="#009C33" fill-rule="nonzero"></path>
                <path d="M36.7,46.7 L34.8,26.7 C34.6,24.3 36.4,22.1 38.8,21.8 C41.2,21.6 43.4,23.4 43.7,25.8 C43.7,26.1 43.7,26.4 43.7,26.7 L41.8,46.7 C41.7,48.1 40.4,49.1 39.1,49 C37.8,48.8 36.9,47.8 36.7,46.7 Z" id="Shape" fill="#009C33" fill-rule="nonzero"></path>
                <polygon id="Shape" stroke="#009C33" stroke-width="9" stroke-linejoin="round" points="78.2 74.8 0.2 74.8 39.2 0.8"></polygon>
            </g>
        </g>
    </g>
</svg>