<?xml version="1.0" encoding="UTF-8"?>
<svg width="250px" height="250px" viewBox="0 0 250 250" version="1.1" xmlns="http://www.w3.org/2000/svg" xmlns:xlink="http://www.w3.org/1999/xlink">
    <!-- Generator: Sketch 47.1 (45422) - http://www.bohemiancoding.com/sketch -->
    <title>noun_407757_cc</title>
    <desc>Created with Sketch.</desc>
    <defs></defs>
    <g id="Page-1" stroke="none" stroke-width="1" fill="none" fill-rule="evenodd">
        <g id="noun_407757_cc" fill-rule="nonzero" fill="#666666">
            <path d="M125,0 C56,0 0,56 0,125 C0,194 56,250 125,250 C194,250 250,194 250,125 C250,56 194,0 125,0 Z M137,187.5 L113,187.5 L113,166.3 L113,118 L137,118 L137,187.5 Z M125,94.8 C114.8,94.8 106.5,86.5 106.5,76.3 C106.5,66.1 114.8,57.8 125,57.8 C135.2,57.8 143.5,66.1 143.5,76.3 C143.5,86.5 135.2,94.8 125,94.8 Z" id="Shape"></path>
        </g>
    </g>
</svg>