<?xml version="1.0" encoding="UTF-8"?>
<svg width="90px" height="80px" viewBox="0 0 90 80" version="1.1" xmlns="http://www.w3.org/2000/svg" xmlns:xlink="http://www.w3.org/1999/xlink">
    <!-- Generator: Sketch 47.1 (45422) - http://www.bohemiancoding.com/sketch -->
    <title>Shape</title>
    <desc>Created with Sketch.</desc>
    <defs></defs>
    <g id="Page-1" stroke="none" stroke-width="1" fill="none" fill-rule="evenodd">
        <g id="noun_189701_cc" fill-rule="nonzero" fill="#FBA85A">
            <path d="M45.072057,2e-05 C45.006557,2e-05 44.938557,0.00302 44.873287,0.00502 C43.959407,0.02632 43.056557,0.26858 42.254437,0.71016 C41.337717,1.21478 40.560357,1.97476 40.038097,2.88556 L0.7702525,71.34332 C0.2702905,72.21512 -3.55e-05,73.22232 2.5e-06,74.22892 C4.05e-05,75.23552 0.2702275,76.24272 0.7702525,77.11442 C1.2702805,77.98622 2.0012175,78.72132 2.8673195,79.22482 C3.7334205,79.72832 4.7344175,79.99962 5.734638,80.00002 L84.265367,80.00002 C85.265587,80.00002 86.266577,79.72832 87.132687,79.22482 C87.998787,78.72132 88.729727,77.98622 89.229747,77.11442 C89.729777,76.24272 89.999967,75.23552 89.999997,74.22892 C90.000037,73.22232 89.729717,72.21512 89.229747,71.34332 L49.961907,2.88556 C49.006597,1.21936 47.175227,0.09558 45.265867,0.00502 C45.200667,0.00202 45.137577,2e-05 45.072057,2e-05 Z M44.908067,18.20842 C46.498217,18.18552 48.091507,18.80712 49.216497,19.88873 C50.341497,20.97033 50.983287,22.49942 50.960747,24.02951 L50.960747,47.63392 C50.983047,49.14962 50.352377,50.66522 49.246317,51.74472 C48.140257,52.82412 46.572897,53.45502 44.997517,53.45502 C43.422137,53.45502 41.859747,52.82412 40.753687,51.74472 C39.647627,50.66522 39.012017,49.14962 39.034287,47.63392 L39.034287,24.02951 C39.012187,22.52811 39.636637,21.02588 40.723867,19.94874 C41.811107,18.8716 43.347737,18.23094 44.908067,18.20842 L44.908067,18.20842 Z M44.997467,57.78082 C48.557347,57.78082 51.447687,60.68452 51.447687,64.26702 C51.447687,67.84952 48.557347,70.75322 44.997467,70.75322 C41.437587,70.75322 38.552217,67.84952 38.552217,64.26702 C38.552217,60.68452 41.437587,57.78082 44.997467,57.78082 Z" id="Shape"></path>
        </g>
    </g>
</svg>