<?xml version="1.0" encoding="UTF-8"?>
<svg width="90px" height="82px" viewBox="0 0 90 82" version="1.1" xmlns="http://www.w3.org/2000/svg" xmlns:xlink="http://www.w3.org/1999/xlink">
    <!-- Generator: Sketch 47.1 (45422) - http://www.bohemiancoding.com/sketch -->
    <title>Shape</title>
    <desc>Created with Sketch.</desc>
    <defs></defs>
    <g id="Page-1" stroke="none" stroke-width="1" fill="none" fill-rule="evenodd">
        <g id="noun_936841_cc" fill-rule="nonzero" fill="#FBA85A">
            <path d="M88.21,65.042 L54.084,5.932 C52.214,2.694 48.73,0.682 44.99,0.682 C41.25,0.682 37.766,2.694 35.896,5.932 L1.467,65.568 C-0.402,68.806 -0.402,72.829 1.467,76.068 C3.337,79.306 6.821,81.318 10.561,81.318 L79.44,81.318 C85.23,81.318 89.94,76.608 89.94,70.818 C89.939,68.752 89.342,66.758 88.21,65.042 Z M79.439,74.317 L10.561,74.317 C9.315,74.317 8.153,73.646 7.53,72.567 C6.907,71.487 6.907,70.146 7.53,69.067 L41.96,9.433 C42.583,8.353 43.745,7.683 44.991,7.683 C46.237,7.683 47.399,8.354 48.022,9.433 L82.206,68.641 C82.248,68.714 82.293,68.786 82.341,68.856 C82.734,69.434 82.941,70.113 82.941,70.818 C82.939,72.747 81.369,74.317 79.439,74.317 Z M45,54.93 C47.16,54.93 48.912,53.179 48.912,51.018 L48.912,30.687 C48.912,28.526 47.16,26.775 45,26.775 C42.84,26.775 41.088,28.526 41.088,30.687 L41.088,51.018 C41.088,53.179 42.84,54.93 45,54.93 Z M45,57.225 C43.68,57.225 42.399,57.755 41.46,58.685 C40.53,59.615 40,60.905 40,62.225 C40,63.535 40.53,64.825 41.46,65.755 C42.399,66.685 43.689,67.225 45,67.225 C46.31,67.225 47.6,66.685 48.53,65.755 C49.469,64.825 50,63.535 50,62.225 C50,60.905 49.47,59.615 48.53,58.685 C47.6,57.754 46.31,57.225 45,57.225 Z" id="Shape"></path>
        </g>
    </g>
</svg>