<?xml version="1.0" encoding="UTF-8"?>
<svg width="59px" height="30px" viewBox="0 0 59 30" version="1.1" xmlns="http://www.w3.org/2000/svg" xmlns:xlink="http://www.w3.org/1999/xlink">
    <!-- Generator: Sketch 47.1 (45422) - http://www.bohemiancoding.com/sketch -->
    <title>auto_icon</title>
    <desc>Created with Sketch.</desc>
    <defs></defs>
    <g id="Page-1" stroke="none" stroke-width="1" fill="none" fill-rule="evenodd" opacity="0.599184783">
        <g id="auto_icon" fill-rule="nonzero" fill="#009C33">
            <g id="Look-&amp;-Feel">
                <g id="6-copy-7">
                    <g id="Group-29">
                        <g id="Group-57">
                            <g id="Group-55">
                                <g id="Group-37">
                                    <path d="M46.8687394,0.000530005757 L28.9052671,0.000530005757 C27.1100218,0.000503033304 25.382697,0.685633568 24.0770642,1.9156007 L15.3479293,10.131254 L7.67396467,10.131254 C3.435751,10.131254 -3.28970994e-08,13.5608795 -3.28971e-08,17.7915368 L-3.28971e-08,21.0599242 C-3.28970994e-08,23.1752528 1.71787548,24.8900656 3.83698232,24.8900656 L6.15835664,24.8900656 C6.94304598,27.8995055 9.66508828,30 12.7803487,30 C15.8956091,30 18.6176514,27.8995055 19.4023407,24.8900656 L40.3650543,24.8900656 C41.1497437,27.8995055 43.871786,30 46.9870463,30 C50.1023068,30 52.8243491,27.8995055 53.6090384,24.8900656 L55.1630162,24.8900656 C57.2821231,24.8900656 58.9999986,23.1752528 58.9999986,21.0599242 L58.9999986,11.4079678 C59.0005133,11.0550709 58.8546759,10.717701 58.5971155,10.4759667 L47.7448504,0.313324886 C47.5025121,0.102958594 47.1897603,-0.0087020952 46.8687394,0.000530005757 Z M40.7743325,2.5539576 L48.6785161,10.1376376 L34.6095808,10.1376376 L34.6095808,2.5539576 L40.7743325,2.5539576 Z M25.8292862,3.76683571 C26.6593225,2.98460554 27.757368,2.54845393 28.8988721,2.54757403 L32.0515926,2.54757403 L32.0515926,10.1376376 L19.0634072,10.1376376 L25.8292862,3.76683571 Z M12.7579662,27.4371096 C10.3880985,27.4371096 8.46694102,25.5193774 8.46694102,23.1537348 C8.46694102,20.7880922 10.3880985,18.87036 12.7579662,18.87036 C15.1278342,18.87036 17.0489916,20.7880922 17.0489916,23.1537348 C17.0454697,25.5179196 15.1263739,27.4335941 12.7579662,27.4371096 Z M46.9902439,27.4371096 C44.6203761,27.4371096 42.6992186,25.5193774 42.6992186,23.1537348 C42.6992186,20.7880922 44.6203761,18.87036 46.9902439,18.87036 C49.3601117,18.87036 51.2812691,20.7880922 51.2812691,23.1537348 C51.2777588,25.5154342 49.3625485,27.4300832 46.9966388,27.4371096 L46.9902439,27.4371096 Z M56.4420104,21.0535405 C56.4420104,21.7586501 55.8693852,22.3302544 55.1630162,22.3302544 L53.7944926,22.3302544 C53.3724437,18.9027436 50.4561126,16.3275282 46.9966388,16.3275282 C43.5371651,16.3275282 40.620834,18.9027436 40.1987851,22.3302544 L19.55582,22.3302544 C19.1337711,18.9027436 16.21744,16.3275282 12.7579662,16.3275282 C9.29849259,16.3275282 6.38216144,18.9027436 5.96011255,22.3302544 L3.81779741,22.3302544 C3.11142846,22.3302544 2.5388033,21.7586501 2.5388033,21.0535405 L2.5388033,17.7915368 C2.5388033,14.9710986 4.82930398,12.6846816 7.65477976,12.6846816 L54.9775621,12.6846816 L44.4642304,2.5539576 L46.3827216,2.5539576 L56.4484053,11.9633383 L56.4420104,21.0535405 Z" id="Shape" transform="translate(29.500000, 15.000000) scale(-1, 1) translate(-29.500000, -15.000000) "></path>
                                </g>
                            </g>
                        </g>
                    </g>
                </g>
            </g>
        </g>
    </g>
</svg>