<?xml version="1.0" encoding="UTF-8"?>
<svg width="78px" height="88px" viewBox="0 0 78 88" version="1.1" xmlns="http://www.w3.org/2000/svg" xmlns:xlink="http://www.w3.org/1999/xlink">
    <!-- Generator: Sketch 47.1 (45422) - http://www.bohemiancoding.com/sketch -->
    <title>noun_689916_cc</title>
    <desc>Created with Sketch.</desc>
    <defs></defs>
    <g id="Page-1" stroke="none" stroke-width="1" fill="none" fill-rule="evenodd">
        <g id="noun_689916_cc" fill-rule="nonzero" fill="#020203">
            <g id="Group">
                <path d="M69.6,53.8 C71.7,53.6 73.4,51.9 73.4,49.7 C73.4,47.4 71.6,45.6 69.3,45.6 L65.4,45.6 L63.2,38.2 C62.2,34.8 58.6,32 55,31.9 L23,31.9 C19.4,32.1 15.8,34.8 14.8,38.2 L12.6,45.6 L8.7,45.6 C6.4,45.6 4.6,47.4 4.6,49.7 C4.6,51.9 6.3,53.6 8.4,53.8 C5.8,55 3.9,57.7 3.9,60.8 L3.9,74.7 C3.9,76.5 5.3,77.9 7,77.9 L7,84.7 L7,84.7 C7,86.1 8.1,87.2 9.5,87.2 L14.6,87.2 C16,87.2 17.1,86.1 17.1,84.7 L17.1,77.9 L60.7,77.9 L60.7,84.7 L60.7,84.7 C60.7,86.1 61.8,87.2 63.2,87.2 L68.3,87.2 C69.7,87.2 70.8,86.1 70.8,84.7 L70.8,77.9 C72.5,77.8 73.9,76.4 73.9,74.7 L73.9,60.8 C74,57.7 72.2,55 69.6,53.8 Z M17.3,38.9 C18,36.5 20.8,34.4 23.4,34.4 L54.7,34.4 C57.2,34.4 60,36.5 60.8,38.9 L64,50.1 L14.1,50.1 L17.3,38.9 Z M14.8,67.6 C12.5,67.6 10.7,65.8 10.7,63.5 C10.7,61.2 12.5,59.4 14.8,59.4 C17.1,59.4 18.9,61.2 18.9,63.5 C18.9,65.8 17,67.6 14.8,67.6 Z M49.9,72.2 L28.1,72.2 L28.1,66.7 L49.9,66.7 L49.9,72.2 Z M63.2,67.6 C60.9,67.6 59.1,65.8 59.1,63.5 C59.1,61.2 60.9,59.4 63.2,59.4 C65.5,59.4 67.3,61.2 67.3,63.5 C67.3,65.8 65.5,67.6 63.2,67.6 Z" id="Shape"></path>
                <path d="M65.4,12.9 L67.8,8.9 L77.1,8.9 L76.1,7.2 C74.3,4.2 70.4,0.7 65.4,0.7 C61.1,0.7 57.4,2.9 55.2,6.2 L22.8,6.2 C20.6,3 16.9,0.9 12.6,0.9 C8.1,0.9 4,3.5 1.8,7.7 L1,9.3 L10.2,9.3 L12.6,13.4 L10.2,17.4 L0.9,17.4 L1.9,19.1 C4.1,22.8 8.2,25.1 12.6,25.1 C16.8,25.1 20.5,22.9 22.7,19.7 L55.3,19.7 C57.5,22.9 61.2,25.1 65.4,25.1 C70,25.1 74.1,22.7 76.2,18.7 L77,17 L67.8,17 L65.4,12.9 Z" id="Shape"></path>
            </g>
        </g>
    </g>
</svg>