<?xml version="1.0" encoding="UTF-8"?>
<svg width="84px" height="84px" viewBox="0 0 84 84" version="1.1" xmlns="http://www.w3.org/2000/svg" xmlns:xlink="http://www.w3.org/1999/xlink">
    <!-- Generator: Sketch 47.1 (45422) - http://www.bohemiancoding.com/sketch -->
    <title>noun_736397_cc</title>
    <desc>Created with Sketch.</desc>
    <defs></defs>
    <g id="Page-1" stroke="none" stroke-width="1" fill="none" fill-rule="evenodd">
        <g id="noun_736397_cc" fill-rule="nonzero" fill="#FFFFFF">
            <path d="M70.972,54.916 L60.582,67.162 L53.943,61.879 C53.297,61.364 52.351,61.471 51.836,62.119 C51.32,62.767 51.428,63.711 52.076,64.227 L59.851,70.415 C60.126,70.634 60.456,70.741 60.784,70.741 C61.21,70.741 61.633,70.56 61.929,70.212 L73.259,56.858 C73.795,56.227 73.718,55.28 73.086,54.744 C72.453,54.205 71.507,54.285 70.972,54.916 Z M62.563,41.626 C51.018,41.626 41.625,51.019 41.625,62.564 C41.625,74.108 51.018,83.501 62.563,83.501 C74.108,83.501 83.5,74.108 83.5,62.563 C83.5,51.019 74.108,41.626 62.563,41.626 Z M62.563,80.5 C52.672,80.5 44.625,72.454 44.625,62.563 C44.625,52.672 52.672,44.625 62.563,44.625 C72.454,44.625 80.5,52.673 80.5,62.563 C80.5,72.454 72.454,80.5 62.563,80.5 Z M46.107,31.972 L12.357,31.972 C11.253,31.972 10.357,32.868 10.357,33.972 C10.357,35.076 11.253,35.972 12.357,35.972 L46.107,35.972 C47.211,35.972 48.107,35.076 48.107,33.972 C48.107,32.868 47.212,31.972 46.107,31.972 Z M46.107,39.758 L12.357,39.758 C11.253,39.758 10.357,40.654 10.357,41.758 C10.357,42.862 11.253,43.758 12.357,43.758 L46.107,43.758 C47.211,43.758 48.107,42.862 48.107,41.758 C48.107,40.654 47.212,39.758 46.107,39.758 Z M38.667,68.393 L12,68.393 C7.589,68.393 4,64.804 4,60.393 L4,12 C4,7.589 7.589,4 12,4 L46.465,4 C50.876,4 54.465,7.589 54.465,12 L54.465,38.667 C54.465,39.771 55.361,40.667 56.465,40.667 C57.569,40.667 58.465,39.771 58.465,38.667 L58.465,12 C58.465,5.383 53.082,0 46.465,0 L12,0 C5.383,0 0,5.383 0,12 L0,60.393 C0,67.01 5.383,72.393 12,72.393 L38.667,72.393 C39.771,72.393 40.667,71.497 40.667,70.393 C40.667,69.289 39.771,68.393 38.667,68.393 Z M39.895,47.544 L12.357,47.544 C11.253,47.544 10.357,48.44 10.357,49.544 C10.357,50.648 11.253,51.544 12.357,51.544 L39.894,51.544 C40.998,51.544 41.894,50.648 41.894,49.544 C41.894,48.44 40.999,47.544 39.895,47.544 Z M46.107,24.186 L12.357,24.186 C11.253,24.186 10.357,25.082 10.357,26.186 C10.357,27.29 11.253,28.186 12.357,28.186 L46.107,28.186 C47.211,28.186 48.107,27.29 48.107,26.186 C48.107,25.082 47.212,24.186 46.107,24.186 Z M37.154,59.33 C38.258,59.33 39.154,58.434 39.154,57.33 C39.154,56.226 38.258,55.33 37.154,55.33 L12.357,55.33 C11.253,55.33 10.357,56.226 10.357,57.33 C10.357,58.434 11.253,59.33 12.357,59.33 L37.154,59.33 Z M34.445,16.5 C35.549,16.5 36.445,15.604 36.445,14.5 C36.445,13.396 35.549,12.5 34.445,12.5 L24.02,12.5 C22.916,12.5 22.02,13.396 22.02,14.5 C22.02,15.604 22.916,16.5 24.02,16.5 L34.445,16.5 Z" id="Shape"></path>
        </g>
    </g>
</svg>