<?xml version="1.0" encoding="UTF-8"?>
<svg width="90px" height="90px" viewBox="0 0 90 90" version="1.1" xmlns="http://www.w3.org/2000/svg" xmlns:xlink="http://www.w3.org/1999/xlink">
    <!-- Generator: Sketch 47.1 (45422) - http://www.bohemiancoding.com/sketch -->
    <title>noun_487092_cc</title>
    <desc>Created with Sketch.</desc>
    <defs></defs>
    <g id="Page-1" stroke="none" stroke-width="1" fill="none" fill-rule="evenodd">
        <g id="noun_487092_cc" fill-rule="nonzero" fill="#E60018">
            <g id="Group">
                <g id="a-link">
                    <g id="a">
                        <path d="M76.8,76.8 C85.6,68 90,57.4 90,45 C90,32.5333333 85.6,21.9166667 76.8,13.15 C68,4.38333333 57.4,0 45,0 C32.5666667,0 21.95,4.38333333 13.15,13.15 C4.38333333,21.95 0,32.5666667 0,45 C0,57.4 4.38333333,68 13.15,76.8 C21.95,85.6 32.5666667,90 45,90 C57.4,90 68,85.6 76.8,76.8 L76.8,76.8 Z M45,38.25 L57.3,25.95 C58.2,25.0166667 59.3166667,24.55 60.65,24.55 C61.95,24.55 63.0833333,25.0166667 64.05,25.95 C64.95,26.8833333 65.4,28 65.4,29.3 C65.4,30.6333333 64.95,31.7666667 64.05,32.7 L51.75,45 L64.05,57.3 C64.9833333,58.2333333 65.45,59.35 65.45,60.65 C65.45,61.9833333 64.9833333,63.1166667 64.05,64.05 C63.1166667,64.9833333 61.9833333,65.45 60.65,65.45 C59.35,65.45 58.2333333,64.9833333 57.3,64.05 L45,51.75 L32.7,64.05 C31.7666667,64.9833333 30.6333333,65.45 29.3,65.45 C28,65.45 26.8833333,64.9833333 25.95,64.05 C25.0166667,63.1166667 24.55,61.9833333 24.55,60.65 C24.55,59.35 25.0166667,58.2333333 25.95,57.3 L38.25,45 L25.95,32.75 C25.0166667,31.7833333 24.55,30.65 24.55,29.35 C24.55,28.05 25.0166667,26.9333333 25.95,26 C26.8833333,25.0333333 28,24.55 29.3,24.55 C30.6333333,24.55 31.7666667,25.0333333 32.7,26 L45,38.25 Z" id="Shape"></path>
                    </g>
                </g>
            </g>
        </g>
    </g>
</svg>