<?xml version="1.0" encoding="UTF-8"?>
<svg width="168px" height="168px" viewBox="0 0 168 168" version="1.1" xmlns="http://www.w3.org/2000/svg" xmlns:xlink="http://www.w3.org/1999/xlink">
    <!-- Generator: Sketch 47.1 (45422) - http://www.bohemiancoding.com/sketch -->
    <title>Group</title>
    <desc>Created with Sketch.</desc>
    <defs></defs>
    <g id="Page-1" stroke="none" stroke-width="1" fill="none" fill-rule="evenodd">
        <g id="Group" transform="translate(4.000000, 4.000000)">
            <g id="exito-icon">
                <g id="Oval-12">
                    <g id="path-1-link" fill-rule="nonzero" fill="#009C33">
                        <circle id="path-1" cx="80" cy="80" r="80"></circle>
                    </g>
                    <g id="path-1-link" stroke-width="8" stroke="#FFFFFF">
                        <circle id="path-1" cx="80" cy="80" r="80"></circle>
                    </g>
                </g>
                <g id="Shape" transform="translate(51.000000, 61.000000)">
                    <g id="path-3-link" fill-rule="nonzero" fill="#000000">
                        <path d="M19.5082391,42.792641 L0.9081405,24.1917679 C-0.3024159,22.9812114 -0.3024159,21.018901 0.9081405,19.8083446 C2.1186969,18.5977882 4.0817823,18.5977882 5.2915638,19.8083446 L21.6999507,36.2167316 L56.708436,1.2082461 C57.918993,-0.0023104 59.882078,-0.0023104 61.091859,1.2082461 C62.302416,2.4188025 62.302416,4.3818879 61.091859,5.5924443 L23.8916623,42.792641 C23.3104092,43.373895 22.5222301,43.700171 21.6999507,43.700171 C20.8776714,43.700171 20.0894922,43.373895 19.5082391,42.792641 Z" id="path-3"></path>
                    </g>
                    <g id="path-3-link" stroke="#FFFFFF" stroke-width="2" fill="#FFFFFF">
                        <path d="M19.5082391,42.792641 L0.9081405,24.1917679 C-0.3024159,22.9812114 -0.3024159,21.018901 0.9081405,19.8083446 C2.1186969,18.5977882 4.0817823,18.5977882 5.2915638,19.8083446 L21.6999507,36.2167316 L56.708436,1.2082461 C57.918993,-0.0023104 59.882078,-0.0023104 61.091859,1.2082461 C62.302416,2.4188025 62.302416,4.3818879 61.091859,5.5924443 L23.8916623,42.792641 C23.3104092,43.373895 22.5222301,43.700171 21.6999507,43.700171 C20.8776714,43.700171 20.0894922,43.373895 19.5082391,42.792641 Z" id="path-3"></path>
                    </g>
                </g>
            </g>
        </g>
    </g>
</svg>