<?xml version="1.0" encoding="UTF-8"?>
<svg width="94px" height="80px" viewBox="0 0 94 80" version="1.1" xmlns="http://www.w3.org/2000/svg" xmlns:xlink="http://www.w3.org/1999/xlink">
    <!-- Generator: Sketch 47.1 (45422) - http://www.bohemiancoding.com/sketch -->
    <title>giftcard-icon-white</title>
    <desc>Created with Sketch.</desc>
    <defs></defs>
    <g id="Page-1" stroke="none" stroke-width="1" fill="none" fill-rule="evenodd">
        <g id="giftcard-icon-white" fill-rule="nonzero" fill="#009C33">
            <path d="M71.4,0.7 L72.6,0.7 C75.7,0.8 78.8,1.6 81.6,3 C85.7,5 89,8.3 91.1,12.4 C92.7,15.4 93.5,18.7 93.6,22 L93.6,23.2 C93.5,26.6 92.6,29.9 91.1,32.8 C89.1,36.6 85.9,39.8 82.2,41.8 C82.2,51 82.2,60.3 82.2,69.5 C82.2,70.4 82.2,71.4 82.1,72.3 C81.7,74.7 80.2,76.9 78.1,78.2 C76.9,78.9 75.4,79.4 74,79.4 L8.5,79.4 C6.8,79.3 5.1,78.7 3.8,77.7 C1.7,76.2 0.4,73.6 0.3,71.1 L0.3,28.4 C0.4,26.1 1.5,23.8 3.2,22.3 C4.7,20.9 6.8,20.2 8.9,20.2 C22.8,20.2 36.7,20.2 50.6,20.2 C50.8,18 51.4,15.9 52.2,13.9 C54.1,9.4 57.6,5.6 61.9,3.2 C64.8,1.7 68.1,0.8 71.4,0.7 L71.4,0.7 Z M71.4,5.4 C67.6,5.5 63.9,7 61,9.5 C58.7,11.4 57,14 56,16.8 C54.9,20 54.7,23.5 55.5,26.7 C56.2,29.3 57.4,31.8 59.2,33.8 C61.1,36 63.6,37.7 66.4,38.7 C69.5,39.8 72.9,39.9 76.1,39.2 C78.3,38.7 80.3,37.7 82.1,36.4 C85.4,33.9 87.8,30.2 88.7,26.2 C89.4,23.1 89.1,19.7 88,16.7 C86.6,12.9 83.9,9.7 80.4,7.7 C77.6,6.1 74.6,5.2 71.4,5.4 L71.4,5.4 Z M5.1,27.7 C4.9,28.4 4.9,29 4.9,29.7 C4.9,35.6 4.9,41.4 4.9,47.3 C8.6,47.3 12.2,47.3 15.9,47.3 C14.7,46.3 13.7,45 12.9,43.6 C12.2,42.3 11.7,40.8 11.7,39.3 C11.7,38.1 12.2,36.9 13.1,36.1 C14.1,35.2 15.4,34.9 16.7,35.1 C18.6,35.3 20.4,36.2 21.8,37.3 C22.8,38.1 23.6,38.9 24.3,39.9 C24.3,34.9 24.3,29.9 24.3,24.9 C19,24.9 13.8,24.9 8.5,24.9 C7.1,25 5.6,26.2 5.1,27.7 L5.1,27.7 Z M27.4,24.9 C27.4,29.7 27.4,34.6 27.4,39.4 C28.5,38.1 29.7,37 31.2,36.2 C32.5,35.5 34,35 35.5,35 C36.6,35 37.8,35.4 38.6,36.3 C39.4,37.2 39.8,38.4 39.8,39.6 C39.8,41.2 39.2,42.7 38.4,44 C37.7,45.2 36.7,46.3 35.6,47.3 C49.6,47.3 63.5,47.3 77.5,47.3 C77.5,46.1 77.5,44.8 77.5,43.6 C73.6,44.6 69.4,44.5 65.5,43.3 C60.6,41.8 56.3,38.4 53.6,34 C51.9,31.2 50.8,28.1 50.5,24.9 C42.9,24.9 35.1,24.9 27.4,24.9 L27.4,24.9 Z M15.6,38.2 C15.1,38.4 14.9,39 14.9,39.5 C14.9,40.7 15.5,41.8 16.1,42.8 C17,44.1 18.1,45.2 19.5,46 C20.3,46.5 21.2,46.8 22.2,46.9 C22.7,46.9 23.2,46.8 23.5,46.4 C23.8,45.9 23.7,45.3 23.6,44.8 C23.3,43.5 22.6,42.3 21.7,41.2 C20.6,40 19.3,38.9 17.8,38.4 C17.1,38.2 16.2,38 15.6,38.2 L15.6,38.2 Z M34.6,38.2 C33.6,38.4 32.7,38.9 31.9,39.5 C30.8,40.3 29.9,41.3 29.2,42.4 C28.7,43.3 28.2,44.2 28.1,45.3 C28.1,45.7 28.1,46.2 28.4,46.6 C28.7,46.9 29.3,47 29.7,46.9 C30.8,46.8 31.9,46.2 32.8,45.6 C34.1,44.7 35.2,43.5 36,42.1 C36.4,41.3 36.8,40.4 36.8,39.5 C36.8,39.1 36.7,38.5 36.3,38.3 C35.6,38.1 35.1,38.2 34.6,38.2 L34.6,38.2 Z M4.9,50.5 C4.9,57.3 4.9,64.1 4.9,71 C4.9,72 5.3,73 6,73.7 C6.7,74.5 7.7,74.9 8.8,74.9 C14,74.9 19.3,74.9 24.5,74.9 C24.5,67.5 24.5,60.1 24.5,52.7 C22.5,54.8 20.4,56.8 18.4,58.9 C18.2,59.1 18,59.4 17.7,59.5 C17.2,59.8 16.4,59.7 16,59.3 C15.3,58.7 15.3,57.5 16,56.9 C18.1,54.8 20.2,52.7 22.3,50.6 C16.4,50.5 10.6,50.5 4.9,50.5 L4.9,50.5 Z M29.9,50.5 C32,52.6 34.1,54.8 36.3,56.9 C36.7,57.3 36.8,57.8 36.7,58.3 C36.6,58.9 36.1,59.4 35.5,59.5 C35,59.6 34.4,59.4 34.1,59.1 C31.9,56.9 29.7,54.7 27.6,52.5 C27.6,59.9 27.6,67.4 27.6,74.8 C43,74.8 58.3,74.8 73.7,74.8 C74.4,74.8 75,74.7 75.6,74.3 C76.8,73.6 77.7,72.3 77.7,70.9 C77.7,64.1 77.7,57.3 77.7,50.4 C61.6,50.4 45.8,50.5 29.9,50.5 Z" id="Shape"></path>
            <path d="M70.8,9.8 C70.8,9 71.6,8.3 72.4,8.4 C73.2,8.4 73.9,9.1 73.9,9.9 C73.9,10.6 73.9,11.3 73.9,12 C75.5,12.2 77,12.7 78.2,13.7 C79.4,14.7 80.3,16.1 80.7,17.6 C80.8,18.1 80.9,18.6 80.8,19.1 C80.7,19.8 80,20.4 79.2,20.4 C78.5,20.4 77.8,19.8 77.7,19 C77.6,17.9 77.1,16.9 76.3,16.3 C75.6,15.7 74.7,15.4 73.8,15.3 C73.8,17.3 73.8,19.2 73.8,21.2 C75.2,21.6 76.7,22.1 78,22.8 C78.8,23.2 79.5,23.6 80.1,24.3 C80.5,24.8 80.8,25.5 80.7,26.1 C80.6,27.7 79.8,29.3 78.7,30.5 C77.4,31.8 75.6,32.5 73.8,32.7 C73.8,33.3 73.8,33.8 73.8,34.4 C73.8,35 73.4,35.5 72.9,35.8 C72.4,36 71.8,36 71.4,35.7 C71,35.4 70.7,35 70.7,34.5 C70.7,33.9 70.7,33.4 70.7,32.8 C69.3,32.6 67.8,32.2 66.6,31.3 C64.9,30.1 63.8,28.1 63.7,26.1 C63.7,25.3 64.3,24.6 65.1,24.5 C65.9,24.4 66.7,25 66.8,25.8 C66.9,26.9 67.4,27.9 68.3,28.6 C69,29.1 69.9,29.4 70.7,29.6 C70.7,27.6 70.7,25.7 70.7,23.7 C69.1,23.2 67.6,22.7 66.1,22 C65.2,21.5 64.3,20.9 63.9,19.9 C63.6,19.1 63.8,18.3 64,17.5 C64.4,16.1 65.2,14.8 66.4,13.9 C67.6,12.9 69.2,12.4 70.7,12.2 C70.8,11.2 70.8,10.5 70.8,9.8 L70.8,9.8 Z M68.1,16.2 C67.5,16.8 67.1,17.6 66.9,18.4 C67.3,18.7 67.8,19 68.3,19.2 C69.1,19.5 69.9,19.8 70.7,20.1 C70.7,18.4 70.7,16.8 70.7,15.1 C69.9,15.2 68.9,15.6 68.1,16.2 L68.1,16.2 Z M73.9,29.2 C74.7,29.1 75.4,28.8 76.1,28.4 C77,27.8 77.6,26.9 77.8,25.9 C76.6,25.1 75.3,24.7 74,24.2 C73.9,26 73.9,27.6 73.9,29.2 Z" id="Shape"></path>
        </g>
    </g>
</svg>