<?xml version="1.0" encoding="UTF-8"?>
<svg width="68px" height="90px" viewBox="0 0 68 90" version="1.1" xmlns="http://www.w3.org/2000/svg" xmlns:xlink="http://www.w3.org/1999/xlink">
    <!-- Generator: Sketch 47.1 (45422) - http://www.bohemiancoding.com/sketch -->
    <title>Shape</title>
    <desc>Created with Sketch.</desc>
    <defs></defs>
    <g id="Page-1" stroke="none" stroke-width="1" fill="none" fill-rule="evenodd">
        <g id="noun_117181_cc" fill-rule="nonzero" fill="#848484">
            <g id="Group">
                <path d="M34,0 C15.431,0 0.316,15.113 0.316,33.687 C0.316,44.546 5.593,54.794 14.44,61.109 L14.857,61.383 C16.912,62.59 17.116,66.475 17.068,67.19 L17.058,67.536 L17.058,78.599 C17.058,80.71 18.235,82.633 20.115,83.599 L31.448,89.385 C32.248,89.794 33.124,90 34,90 C34.866,90 35.735,89.797 36.533,89.398 L47.996,83.608 C49.888,82.656 51.079,80.719 51.079,78.598 L51.079,67.604 C51.079,62.064 54.46,60.232 54.497,60.222 L55.738,59.417 C63.333,52.991 67.683,43.619 67.683,33.686 C67.684,15.113 52.575,0 34,0 Z M34,84.387 L22.675,78.599 L45.468,78.599 L34,84.387 Z M45.459,67.604 L45.459,72.983 L22.675,72.983 L22.675,67.545 L22.675,67.37 L45.483,67.37 L45.459,67.604 Z M52.116,55.133 C52.116,55.133 48.351,56.894 46.491,61.757 L21.774,61.757 C21.079,59.813 19.867,57.813 17.703,56.534 C10.582,51.453 5.932,43.11 5.932,33.686 C5.932,18.186 18.498,5.613 34,5.613 C49.507,5.613 62.073,18.186 62.073,33.686 C62.073,42.287 58.2,49.977 52.116,55.133 Z" id="Shape"></path>
            </g>
        </g>
    </g>
</svg>