<?xml version="1.0" encoding="UTF-8"?>
<svg width="100px" height="80px" viewBox="0 0 100 80" version="1.1" xmlns="http://www.w3.org/2000/svg" xmlns:xlink="http://www.w3.org/1999/xlink">
    <!-- Generator: Sketch 47.1 (45422) - http://www.bohemiancoding.com/sketch -->
    <title>Shape</title>
    <desc>Created with Sketch.</desc>
    <defs></defs>
    <g id="Page-1" stroke="none" stroke-width="1" fill="none" fill-rule="evenodd">
        <path d="M94.86,45.18 L84.86,45.18 L84.86,42.18 C84.86,40.733014 83.686986,39.56 82.24,39.56 L71.43,39.56 C69.983014,39.56 68.81,40.733014 68.81,42.18 L68.81,45.18 L58.81,45.18 C56.3412872,45.18 54.34,47.1812872 54.34,49.65 L54.34,75.49 C54.3293104,76.6841685 54.7969078,77.8329621 55.6385237,78.6802138 C56.4801395,79.5274654 57.6257868,80.0027195 58.82,80 L94.82,80 C97.2887128,80 99.29,77.9987128 99.29,75.53 L99.29,49.65 C99.2900982,47.1968241 97.3130776,45.2019524 94.86,45.18 Z M76.41,71.54 C76.41,72.1254218 75.9354218,72.6 75.35,72.6 L62.27,72.6 C61.6845782,72.6 61.21,72.1254218 61.21,71.54 L61.21,69 C61.1987961,65.9342401 63.0449887,63.1669278 65.88,62 C64.0080188,60.7159929 63.1901369,58.362741 63.8622806,56.1945134 C64.5344243,54.0262858 66.5399806,52.5482907 68.81,52.5482907 C71.0800194,52.5482907 73.0855757,54.0262858 73.7577194,56.1945134 C74.4298631,58.362741 73.6119812,60.7159929 71.74,62 C74.5750113,63.1669278 76.4212039,65.9342401 76.41,69 L76.41,71.54 Z M88.2,69.3 C88.2,69.8522847 87.7522847,70.3 87.2,70.3 L81.1,70.3 C80.5477153,70.3 80.1,69.8522847 80.1,69.3 L80.1,68.36 C80.1,67.8077153 80.5477153,67.36 81.1,67.36 L87.2,67.36 C87.7522847,67.36 88.2,67.8077153 88.2,68.36 L88.2,69.3 Z M92.47,63 C92.47,63.5522847 92.0222847,64 91.47,64 L81.08,64 C80.5277153,64 80.08,63.5522847 80.08,63 L80.08,62.1 C80.08,61.5477153 80.5277153,61.1 81.08,61.1 L91.46,61.1 C92.0122847,61.1 92.46,61.5477153 92.46,62.1 L92.47,63 Z M92.47,56.73 C92.47,57.2822847 92.0222847,57.73 91.47,57.73 L81.08,57.73 C80.5277153,57.73 80.08,57.2822847 80.08,56.73 L80.08,55.79 C80.08,55.2377153 80.5277153,54.79 81.08,54.79 L91.46,54.79 C92.0122847,54.79 92.46,55.2377153 92.46,55.79 L92.47,56.73 Z M49.06,80 L49.06,49.65 C49.065512,44.2619857 53.4319857,39.895512 58.82,39.89 L63.82,39.89 C64.8345698,36.5626967 67.9014584,34.2868707 71.38,34.28 L80,34.28 L80,17.11 C80.1123777,15.2877676 79.1294225,13.5734937 77.5,12.75 L74.57,11.61 L74.57,11.61 L67.57,8.9 L59.62,5.81 L52.49,3 L45.3,0.2 L45.11,0.14 L44.92,0.09 C44.5057893,-0.00862030769 44.0742107,-0.00862030769 43.66,0.09 L43.47,0.14 L43.28,0.2 L11.11,12.75 C9.48057745,13.5734937 8.49762227,15.2877676 8.61,17.11 L8.61,71.11 L5.11,71.11 C2.65509429,71.11 0.665,73.1000943 0.665,75.555 C0.665,78.0099057 2.65509429,80 5.11,80 L49.06,80 Z M15.64,20.5 L40.77,10.71 L40.77,18.1 L15.64,26.63 L15.64,20.5 Z M15.64,32.88 L40.77,25.66 L40.77,33.23 L15.64,39.13 L15.64,32.88 Z M15.64,45.37 L40.77,40.77 L40.77,48.34 L15.64,51.62 L15.64,45.37 Z M15.64,57.86 L40.77,55.86 L40.77,63.43 L15.64,64.09 L15.64,57.86 Z" id="Shape" fill="#000000" fill-rule="nonzero"></path>
    </g>
</svg>