<?xml version="1.0" encoding="UTF-8"?>
<svg width="75px" height="54px" viewBox="0 0 75 54" version="1.1" xmlns="http://www.w3.org/2000/svg" xmlns:xlink="http://www.w3.org/1999/xlink">
    <!-- Generator: Sketch 47.1 (45422) - http://www.bohemiancoding.com/sketch -->
    <title>Group 48 Copy 2</title>
    <desc>Created with Sketch.</desc>
    <defs></defs>
    <g id="Look-&amp;-Feel" stroke="none" stroke-width="1" fill="none" fill-rule="evenodd">
        <g id="Group-48-Copy-2">
            <g id="Group">
                <path d="M34.7222222,0 L43.7890712,0.00188146754 C54.6936528,0.00564440263 59.7222222,7.01317027 59.7222222,13.9952963 C59.7222222,21.1006585 54.6936528,28 43.8285075,28 L34.7222222,28 L34.7222222,0 Z M42.9538975,6.83443086 C42.9460102,6.83443086 42.9871993,21.2728128 42.9460102,21.187206 C49.1638039,21.187206 50.9612239,18.4553151 50.9585948,14.0733772 C50.9577184,9.7130762 49.1261203,6.83631232 42.9538975,6.83443086 Z" id="Fill-1" fill="#00A84F"></path>
                <polygon id="Fill-3" fill="#00A84F" points="65.2777778 28 75 28 75 0 65.2777778 0"></polygon>
                <polygon id="Fill-5" fill="#00A84F" points="19.4444444 28 29.1666667 28 29.1666667 0 19.4444444 0"></polygon>
                <polygon id="Fill-6" fill="#EC1D24" points="9.72222222 19.6 19.4444444 19.6 19.4444444 9.8 9.72222222 9.8"></polygon>
                <polygon id="Fill-7" fill="#00A84F" points="0 28 9.72222222 28 9.72222222 0 0 0"></polygon>
            </g>
            <g id="Page-1" transform="translate(1.000000, 37.000000)" fill="#000000">
                <path d="M23.8660059,8.66829925 C23.8930334,8.67150901 23.9199877,8.67471877 23.9470152,8.67792853 C23.9470152,8.87504969 23.9341973,9.07307795 23.9492858,9.26915245 C24.0078821,10.0278421 24.1476342,10.7676221 24.5955293,11.4194128 C25.1923321,12.2877926 26.1900066,12.3784334 26.9414303,11.6251166 C27.0972964,11.4687454 27.2613659,11.2793696 27.3160801,11.0791084 C27.5046136,10.3881028 27.7083088,9.69214305 27.7902703,8.9858562 C27.8904699,8.12250042 27.7148276,7.27184413 27.3144687,6.48238262 C27.0038353,5.86980682 26.5141904,5.43460517 25.7660627,5.43188385 C25.0232819,5.42916253 24.6202129,5.91920922 24.3249611,6.50045497 C24.2564767,6.6352649 24.1920941,6.77865746 24.1649201,6.92477134 C24.05681,7.50448198 23.9643011,8.08684417 23.8660059,8.66829925 L23.8660059,8.66829925 Z M24.8980324,17 C24.3494983,16.8518626 23.802136,16.6996781 23.2519172,16.5576113 C23.0217804,16.4982307 22.9462645,16.3791207 22.9748301,16.150809 C23.0144558,15.8338801 23.0153348,15.5126249 23.0326939,15.1949982 C23.6338915,15.3781639 24.1764196,15.5893801 24.7406282,15.7040941 C25.4867783,15.8559297 26.2233332,15.7943163 26.8752165,15.3492063 C27.2967434,15.0614443 27.5915558,14.6981133 27.7027422,14.201996 C27.8686428,13.4613787 27.8955971,12.716784 27.8587547,11.8853165 C27.7494727,12.0192194 27.6861887,12.0834843 27.6385793,12.15696 C26.5563064,13.8288265 24.0098597,13.6500568 23.0589157,11.8652904 C22.4044688,10.6371384 22.2628856,9.31862462 22.373779,7.96522216 C22.4378687,7.18322683 22.6095557,6.42614203 23.0044945,5.72850758 C23.6419485,4.60237011 24.7836233,4.07785339 26.0966188,4.30009441 C26.6658814,4.39652678 27.1060125,4.68777765 27.4635229,5.10769805 C27.5759545,5.23978667 27.6879466,5.37236373 27.8607323,5.57618352 L27.8607323,4.46609485 L29.2998563,4.46609485 C29.3060089,4.59832302 29.3178014,4.73299341 29.3178747,4.86752424 C29.3189001,7.36722984 29.3260781,9.86686566 29.3129672,12.3663619 C29.3098177,12.9690991 29.2816915,13.5775581 29.1895489,14.1727593 C28.9559695,15.6814165 27.991109,16.5793818 26.305661,16.9247102 C26.2250911,16.9412474 26.1484033,16.9745312 26.0699575,17 L24.8980324,17 Z" id="Fill-5"></path>
                <path d="M0,2.63542146 C0.0391940766,2.50902124 0.0806983732,2.38320284 0.117104253,2.25614808 C0.468257688,1.0317096 1.61707431,0.167926296 3.13791601,0.0340351562 C4.09498438,-0.0501831707 5.04456445,0.0157805793 5.96769648,0.300653797 C6.18836232,0.368799369 6.29041031,0.454908609 6.27830157,0.681308999 C6.25719094,1.07600059 6.27240653,1.47236491 6.27240653,1.87360196 C5.77316003,1.7253108 5.32043658,1.55672869 4.84986867,1.46211034 C4.48055213,1.3879284 4.08709777,1.37047382 3.70790304,1.38887385 C2.84029595,1.43098302 2.15193006,1.91789295 1.91150786,2.61120323 C1.64423931,3.38189547 1.87040188,4.1196422 2.5899159,4.62371579 C3.09354386,4.97644367 3.65620191,5.25818961 4.16875209,5.60124475 C4.7969726,6.02168184 5.47673491,6.40844614 5.99892428,6.92393794 C7.15124607,8.06132171 7.20469978,9.4264877 6.59790855,10.7920901 C6.01119235,12.1126741 4.79219283,12.6616205 3.2855311,12.7392207 C2.29309247,12.7902753 1.33092569,12.6600933 0.39552559,12.3460564 C0.160600119,12.2672199 0.0675540182,12.1597288 0.0793441063,11.9264193 C0.1005344,11.5037276 0.0853188131,11.0795815 0.0853188131,10.5876533 C0.272685618,10.6762353 0.417273523,10.7457627 0.563056369,10.8131083 C1.47885943,11.2365272 2.42318175,11.5393641 3.46787915,11.3003091 C5.14852435,10.9157266 5.7342846,9.0237961 4.50612387,7.90510326 C4.1528992,7.5832118 3.72240166,7.32924772 3.31317408,7.06219272 C2.97906847,6.84415598 2.62433022,6.6523011 2.27795655,6.44997348 C1.18012409,5.80866329 0.236757715,5.05702563 0,3.79905982 L0,2.63542146 Z" id="Fill-7"></path>
                <path d="M74,11.8834112 C73.8226456,12.599612 73.5116339,13.2358145 72.8410149,13.6397417 C71.8013028,14.2659539 70.6811164,14.266635 69.5433579,13.9904629 C68.3392761,13.6982457 68.3425417,13.6851523 68.471145,12.4862369 C68.4812529,12.3909503 68.4925271,12.2956638 68.5082332,12.1561776 C68.7796687,12.2977829 69.0112169,12.4290196 69.2517844,12.5420163 C69.8738078,12.8343848 70.5201679,12.9642591 71.2090588,12.8063059 C71.7291481,12.6871788 72.1064053,12.4044978 72.2507925,11.8974885 C72.403888,11.3599028 72.372087,10.8166407 71.920809,10.428153 C71.5475173,10.1067974 71.0994272,9.86642394 70.6783173,9.59940963 C70.2672376,9.3388285 69.8288666,9.11533268 69.4366031,8.83098666 C68.5027127,8.15414173 68.3011772,7.21164481 68.5388678,6.16455215 C68.7786579,5.10807463 69.5466235,4.5524003 70.582448,4.33162912 C71.5351545,4.12856807 72.4600256,4.33374828 73.3640588,4.6248302 C73.442356,4.65003309 73.5244631,4.8088188 73.521353,4.90304579 C73.5101566,5.24158178 73.4632716,5.5790582 73.428827,5.92758452 C72.9137139,5.80573275 72.4129851,5.66435443 71.9025371,5.57603082 C71.6425313,5.53107433 71.3617655,5.55832069 71.0962393,5.59389232 C70.6229572,5.65754284 70.2670043,5.91116102 70.1312477,6.36208824 C69.9858498,6.84495425 70.0177285,7.33697805 70.4397713,7.68550438 C70.7715431,7.95963301 71.1573531,8.17450081 71.5310336,8.39678568 C71.8283608,8.57365995 72.1476143,8.71511396 72.4499955,8.88426843 C73.2624358,9.33875281 73.8088833,9.99054623 74,10.899515 L74,11.8834112 Z" id="Fill-9"></path>
                <path d="M62.6562267,9.26533627 C62.6543212,8.20723962 62.4849371,7.27328569 62.1829857,6.61683172 C61.870486,5.93753731 61.4169803,5.49765017 60.6942568,5.5037966 C59.9604406,5.50994303 59.4687572,5.94087611 59.1999475,6.66023614 C58.5502449,8.39838602 58.5482033,10.1487529 59.2440459,11.8730923 C59.5186401,12.5535249 60.034074,12.9097143 60.7026273,12.9214002 C61.3685266,12.9329342 61.8392496,12.5474544 62.1367776,11.9006374 C62.5165818,11.0747392 62.6603099,10.1870732 62.6562267,9.26533627 M64.2264151,9.23088591 C64.0758817,10.0539006 63.9990498,10.904688 63.7593669,11.6941628 C63.2611504,13.3349563 62.1198324,14.1841502 60.6129334,14.1663938 C59.2075695,14.1498516 58.0741457,13.2298599 57.6015171,11.6301185 C57.1162307,9.98773158 57.1250096,8.32053123 57.638606,6.68527716 C58.1012988,5.21172732 59.2308436,4.28437511 60.5096288,4.2513665 C62.0187056,4.21228735 63.1334828,5.01223391 63.7143838,6.54322632 C64.0383164,7.397049 64.1264451,8.29465552 64.1320935,9.20941134 C64.1635341,9.21654423 64.1949746,9.22367713 64.2264151,9.23088591" id="Fill-11"></path>
                <path d="M41.8867925,4.25 L41.8867925,13.9114071 L40.4378177,13.9114071 C40.4117043,13.5010468 40.3865406,13.1058765 40.3565498,12.6341366 C40.2438667,12.7792158 40.1673466,12.8726028 40.0963658,12.9697873 C39.3662996,13.9698418 38.1722862,14.3757846 36.8759559,14.0635388 C35.8880797,13.8255376 35.1187644,12.9026726 35.0046569,11.7111166 C34.9248134,10.8780737 34.9194324,10.0367383 34.9127063,9.1988129 C34.8995705,7.56116937 34.9088288,5.92329334 34.9088288,4.25604497 L36.555632,4.25604497 C36.555632,4.40197667 36.5552364,4.55147335 36.5557112,4.70097003 C36.5605382,6.533835 36.5610921,8.36669996 36.5741488,10.1995649 C36.5769184,10.5855128 36.6096788,10.9730882 36.6569202,11.3566336 C36.7486335,12.1014045 37.2106816,12.5986418 37.8998368,12.7258186 C38.6310108,12.8608229 39.3366254,12.5286597 39.7052194,11.8945581 C40.1628361,11.1068525 40.1696414,10.2356797 40.1817485,9.37419444 C40.2035888,7.82544292 40.1879999,6.27614891 40.1880791,4.72700989 L40.1880791,4.25 L41.8867925,4.25 Z" id="Fill-13"></path>
                <path d="M16.5883508,8.40577487 C16.5450737,7.67108762 16.5115811,6.96783611 16.1657408,6.32919829 C15.5506042,5.1931941 14.1563298,5.12986814 13.431006,6.20133438 C12.9855908,6.85959113 12.8547059,7.60730716 12.7998381,8.40577487 L16.5883508,8.40577487 Z M18.0746737,9.60283256 L12.7810972,9.60283256 C12.8551575,10.784589 13.050243,11.9073372 14.0964193,12.5655182 C15.2900386,13.3165671 16.4030497,12.7725395 17.5354037,12.0877707 C17.5534672,12.5940754 17.578154,13.050386 17.5764229,13.5066208 C17.5761971,13.5697953 17.4555481,13.6566791 17.3734346,13.6917508 C16.3450208,14.1306391 15.2803295,14.2935747 14.1774038,14.0604957 C12.8357393,13.7769681 11.9884118,12.9100993 11.5771667,11.6407773 C11.0212632,9.92514355 11.0219406,8.18443699 11.6556675,6.48690722 C12.30663,4.74354945 13.9953391,3.8984205 15.7127992,4.38707577 C16.411404,4.58591627 16.933589,5.01935069 17.3144272,5.62382582 C18.0349341,6.76740488 18.195699,8.0426353 18.1412075,9.36248174 C18.1382722,9.43398857 18.1028979,9.50413193 18.0746737,9.60283256 L18.0746737,9.60283256 Z" id="Fill-15"></path>
                <path d="M50.482077,12.75 L48.8679245,12.75 L48.8679245,4.38963217 L50.282873,4.38963217 L50.282873,5.6420994 C50.6581,5.26434247 50.9739686,4.8433693 51.4003456,4.54514367 C51.8586439,4.2246064 52.4557998,4.21964825 53.0566038,4.279816 L53.0566038,5.67426033 C52.9008736,5.662803 52.7425592,5.65476277 52.585309,5.63895031 C51.9674043,5.57683951 51.509638,5.80833121 51.1512077,6.23406152 C50.6600001,6.8176484 50.5209905,7.49389896 50.5102741,8.19413622 C50.4892973,9.56693893 50.4901333,10.9399426 50.482229,12.3130134 C50.481393,12.4450742 50.482077,12.577269 50.482077,12.75" id="Fill-17"></path>
            </g>
        </g>
    </g>
</svg>