<?xml version="1.0" encoding="UTF-8"?>
<svg width="31px" height="31px" viewBox="0 0 31 31" version="1.1" xmlns="http://www.w3.org/2000/svg" xmlns:xlink="http://www.w3.org/1999/xlink">
    <!-- Generator: Sketch 47.1 (45422) - http://www.bohemiancoding.com/sketch -->
    <title>6-copy-7</title>
    <desc>Created with Sketch.</desc>
    <defs></defs>
    <g id="Page-1" stroke="none" stroke-width="1" fill="none" fill-rule="evenodd" opacity="0.599807518">
        <g id="6-copy-7" fill-rule="nonzero" fill="#009C33">
            <g id="Group-29">
                <g id="Group-57">
                    <g id="Group-33">
                        <g id="Group-27">
                            <g id="Group-7">
                                <g id="Group-35">
                                    <g id="noun_894556_cc">
                                        <g id="Group" transform="translate(0.000000, 0.265758)">
                                            <g id="Shape" transform="translate(0.251971, 0.013567)">
                                                <path d="M22.2834641,0.0262467185 C19.8162722,-0.131233596 17.3097107,0.721784778 15.4330704,2.59842519 C13.1364826,4.9081363 12.4409444,8.16272963 13.2020993,11.1154856 L1.29921256,23.0183726 C-0.433070852,24.7506559 -0.433070852,27.5853019 1.29921256,29.3044619 C3.01837263,31.0367452 5.85301815,31.0367452 7.58530148,29.3044619 L19.4881885,17.4015748 C22.4409441,18.175853 25.6955374,17.4671915 28.0052485,15.1706037 C30.51181,12.6640419 31.2073481,9.02887148 30.0918626,5.90551185 C29.9606289,5.55118111 29.6456685,5.27559037 29.2782144,5.19685037 C28.9238837,5.11811037 28.5170596,5.23622037 28.2545922,5.49868778 L24.6062985,9.14698148 C23.7270333,10.0262467 22.3359574,10.0262467 21.4566922,9.14698148 C20.577427,8.26771667 20.577427,6.87664037 21.4566922,5.99737519 L25.1181096,2.34908137 C25.3805767,2.08661415 25.4855637,1.67979004 25.4068233,1.3254593 C25.3280833,0.958005259 25.0524926,0.64304463 24.6981619,0.52493437 C23.9107604,0.24934383 23.0971122,0.0787401556 22.2834641,0.0262467185 Z M22.0866133,2.23097111 L19.8950126,4.43569556 C18.1627293,6.16797889 18.1627293,8.98950111 19.8950126,10.7217848 C21.6272959,12.4540681 24.4488181,12.4540681 26.1811015,10.7217848 L28.3727026,8.5301837 C28.4645659,10.3543307 27.8346448,12.2047244 26.4304456,13.5958004 C24.5538052,15.4855641 21.8372696,15.9842519 19.4881885,15.1574804 C19.0944878,15.0131233 18.6220467,15.11811 18.333333,15.4199474 L6.01049852,27.7296585 L6.02362074,27.7427807 L6.01049852,27.7296585 C5.11811,28.622047 3.75328074,28.6351704 2.87401567,27.7427807 C1.98162722,26.8635156 1.98162722,25.4855626 2.87401567,24.5931744 L15.19685,12.2703411 C15.4855637,11.9685041 15.5905507,11.5091863 15.4461937,11.1154856 C14.6194222,8.76640407 15.131233,6.04986889 17.0078733,4.17322815 C18.412073,2.76902885 20.2624667,2.12598426 22.0866133,2.23097111 Z"></path>
                                            </g>
                                        </g>
                                    </g>
                                </g>
                            </g>
                        </g>
                    </g>
                </g>
            </g>
        </g>
    </g>
</svg>