<?xml version="1.0" encoding="UTF-8"?>
<svg width="49px" height="25px" viewBox="0 0 49 25" version="1.1" xmlns="http://www.w3.org/2000/svg" xmlns:xlink="http://www.w3.org/1999/xlink">
    <!-- Generator: Sketch 47.1 (45422) - http://www.bohemiancoding.com/sketch -->
    <title>Shape</title>
    <desc>Created with Sketch.</desc>
    <defs></defs>
    <g id="Look-&amp;-Feel" stroke="none" stroke-width="1" fill="none" fill-rule="evenodd" opacity="0.3">
        <g id="6-copy-7" transform="translate(-851.000000, -534.000000)" fill-rule="nonzero" fill="#7B7674">
            <g id="Group-29" transform="translate(818.000000, 467.000000)">
                <g id="Group-57" transform="translate(0.000000, 59.000000)">
                    <g id="Group-55">
                        <g id="Group-37" transform="translate(0.000000, 8.000000)">
                            <g id="noun_1363064_cc" transform="translate(57.500000, 12.500000) scale(-1, 1) translate(-57.500000, -12.500000) translate(33.000000, 0.000000)">
                                <path d="M38.9248853,0.000441671464 L24.0060693,0.000441671464 C22.5151029,0.00041919442 21.080545,0.571361307 19.9962059,1.59633392 L12.7465854,8.44271167 L6.37329272,8.44271167 C2.85342035,8.44271167 4.71718421e-16,11.3007329 0,14.8262807 L0,17.5499368 C4.71718421e-16,19.3127107 1.42671017,20.7417213 3.18664636,20.7417213 L5.11456741,20.7417213 C5.76625855,23.2495879 8.02693775,25 10.6141879,25 C13.2014381,25 15.4621173,23.2495879 16.1138084,20.7417213 L33.5235197,20.7417213 C34.1752109,23.2495879 36.4358901,25 39.0231402,25 C41.6103904,25 43.8710696,23.2495879 44.5227607,20.7417213 L45.8133525,20.7417213 C47.5732887,20.7417213 48.9999989,19.3127107 48.9999989,17.5499368 L48.9999989,9.50663984 C49.0004263,9.21255906 48.8793071,8.93141751 48.665401,8.72997228 L39.6525029,0.261104072 C39.4512389,0.0857988282 39.1914959,-0.007251746 38.9248853,0.000441671464 Z M33.8634287,2.128298 L40.4279202,8.44803131 L28.7435502,8.44803131 L28.7435502,2.128298 L33.8634287,2.128298 Z M21.4514411,3.13902976 C22.1407933,2.48717128 23.0527294,2.12371161 24.0007582,2.12297836 L26.6191193,2.12297836 L26.6191193,8.44803131 L15.8323213,8.44803131 L21.4514411,3.13902976 Z M10.5955991,22.864258 C8.62740385,22.864258 7.0318663,21.2661478 7.0318663,19.294779 C7.0318663,17.3234102 8.62740385,15.7253 10.5955991,15.7253 C12.5637945,15.7253 14.159332,17.3234102 14.159332,19.294779 C14.1564071,21.264933 12.5625817,22.8613284 10.5955991,22.864258 Z M39.0257958,22.864258 C37.0576005,22.864258 35.4620629,21.2661478 35.4620629,19.294779 C35.4620629,17.3234102 37.0576005,15.7253 39.0257958,15.7253 C40.9939911,15.7253 42.5895286,17.3234102 42.5895286,19.294779 C42.5866133,21.2628618 40.9960149,22.8584027 39.0311068,22.864258 L39.0257958,22.864258 Z M46.875568,17.5446171 C46.875568,18.1322084 46.3999979,18.6085453 45.8133525,18.6085453 L44.676782,18.6085453 C44.3262668,15.7522863 41.9042291,13.6062735 39.0311068,13.6062735 C36.1579846,13.6062735 33.7359469,15.7522863 33.3854317,18.6085453 L16.2412743,18.6085453 C15.8907591,15.7522863 13.4687214,13.6062735 10.5955991,13.6062735 C7.72247692,13.6062735 5.30043919,15.7522863 4.94992401,18.6085453 L3.17071313,18.6085453 C2.58406773,18.6085453 2.10849768,18.1322084 2.10849768,17.5446171 L2.10849768,14.8262807 C2.10849768,12.4759155 4.01077791,10.570568 6.35735949,10.570568 L45.6593313,10.570568 L36.9279202,2.128298 L38.5212434,2.128298 L46.880879,9.96944859 L46.875568,17.5446171 Z" id="Shape"></path>
                            </g>
                        </g>
                    </g>
                </g>
            </g>
        </g>
    </g>
</svg>