<?xml version="1.0" encoding="UTF-8"?>
<svg width="229px" height="229px" viewBox="0 0 229 229" version="1.1" xmlns="http://www.w3.org/2000/svg" xmlns:xlink="http://www.w3.org/1999/xlink">
    <!-- Generator: Sketch 47.1 (45422) - http://www.bohemiancoding.com/sketch -->
    <title>noun_1405962_cc</title>
    <desc>Created with Sketch.</desc>
    <defs></defs>
    <g id="Page-1" stroke="none" stroke-width="1" fill="none" fill-rule="evenodd">
        <g id="noun_1405962_cc" fill-rule="nonzero" fill="#FFFFFF">
            <path d="M94,39 C103,48 103,64 94,73 L78,89 C90,115 115,139 140,152 L156,135 C166,126 181,126 190,135 L216,161 C225,170 225,185 216,195 L190,220 C141,270 -40,88 9,39 L35,14 C44,4 59,4 69,14 L94,39 Z M132,14 C124,12 127,-1 136,1 C181,13 216,48 228,93 C230,102 218,105 215,97 C205,57 173,25 132,14 Z M124,45 C116,43 119,30 128,32 C162,41 188,68 197,102 C200,110 187,114 184,105 C177,76 154,53 124,45 Z M85,48 L59,23 C55,19 48,19 44,23 L19,48 C-18,85 144,247 181,210 L206,185 C210,181 211,174 207,170 L181,145 C177,140 170,140 166,145 L146,164 C144,166 141,167 139,166 C108,152 78,122 64,91 C62,89 63,85 65,83 L85,64 C89,59 89,52 85,48 Z" id="Shape"></path>
        </g>
    </g>
</svg>