<?xml version="1.0" encoding="UTF-8"?>
<svg width="47px" height="42px" viewBox="0 0 47 42" version="1.1" xmlns="http://www.w3.org/2000/svg" xmlns:xlink="http://www.w3.org/1999/xlink">
    <!-- Generator: Sketch 47.1 (45422) - http://www.bohemiancoding.com/sketch -->
    <title>Group 2</title>
    <desc>Created with Sketch.</desc>
    <defs></defs>
    <g id="Page-1" stroke="none" stroke-width="1" fill="none" fill-rule="evenodd">
        <g id="Group-2" fill-rule="nonzero" fill="#FFFFFF">
            <g id="noun_935935_cc">
                <g id="Group">
                    <path d="M27.828,6.179 C27.766,6.017 27.626,5.899 27.455,5.866 C27.284,5.834 27.11,5.892 26.993,6.019 L17.995,15.811 L5.022,20.753 C3.399,21.371 2.115,22.584 1.405,24.168 C0.695,25.752 0.644,27.519 1.262,29.141 C2.216,31.646 4.657,33.329 7.337,33.329 C8.127,33.329 8.905,33.185 9.649,32.901 L11.182,32.318 L18.963,41.829 C19.06,41.948 19.203,42.013 19.35,42.013 C19.41,42.013 19.47,42.002 19.528,41.98 L25.134,39.844 C25.284,39.787 25.398,39.661 25.44,39.506 C25.481,39.351 25.445,39.185 25.343,39.061 L17.773,29.808 L22.622,27.96 L35.854,29.283 C36.029,29.306 36.196,29.227 36.301,29.09 C36.405,28.952 36.433,28.771 36.37,28.609 L27.828,6.179 Z M22.605,26.953 C22.527,26.942 22.45,26.955 22.377,26.983 L16.77,29.119 C16.62,29.176 16.506,29.302 16.465,29.457 C16.423,29.612 16.459,29.778 16.561,29.902 L24.132,39.155 L19.51,40.916 L11.729,31.405 C11.632,31.286 11.489,31.221 11.342,31.221 C11.282,31.221 11.222,31.232 11.164,31.254 L9.294,31.966 C8.664,32.206 8.005,32.327 7.337,32.327 C5.069,32.327 3.004,30.903 2.196,28.784 C1.673,27.411 1.716,25.917 2.317,24.576 C2.918,23.235 4.005,22.209 5.378,21.686 L18.461,16.702 C18.533,16.674 18.598,16.63 18.651,16.573 L27.181,7.29 L35.15,28.206 L22.605,26.953 Z" id="Shape"></path>
                    <path d="M12.766,24.225 L9.028,25.649 C8.77,25.747 8.64,26.036 8.738,26.294 C8.814,26.494 9.004,26.616 9.205,26.616 C9.264,26.616 9.325,26.605 9.383,26.583 L13.121,25.159 C13.379,25.061 13.509,24.772 13.411,24.514 C13.312,24.255 13.021,24.124 12.766,24.225 Z" id="Shape"></path>
                    <path d="M43.313,13.121 C43.215,12.863 42.924,12.735 42.668,12.832 L37.062,14.968 C36.803,15.066 36.674,15.355 36.773,15.614 C36.848,15.813 37.039,15.936 37.24,15.936 C37.3,15.936 37.359,15.926 37.418,15.903 L43.024,13.767 C43.283,13.668 43.412,13.379 43.313,13.121 Z" id="Shape"></path>
                    <path d="M36.198,0.472 C35.947,0.36 35.65,0.471 35.538,0.723 L33.224,5.885 C33.111,6.137 33.224,6.433 33.476,6.546 C33.542,6.576 33.612,6.59 33.68,6.59 C33.87,6.59 34.053,6.48 34.136,6.295 L36.45,1.133 C36.563,0.881 36.45,0.585 36.198,0.472 Z" id="Shape"></path>
                    <path d="M46.166,26.638 L41.004,24.325 C40.753,24.21 40.456,24.325 40.344,24.577 C40.231,24.829 40.344,25.125 40.596,25.237 L45.758,27.55 C45.824,27.58 45.894,27.594 45.962,27.594 C46.152,27.594 46.335,27.484 46.418,27.298 C46.531,27.046 46.418,26.75 46.166,26.638 Z" id="Shape"></path>
                </g>
            </g>
        </g>
    </g>
</svg>