<?xml version="1.0" encoding="UTF-8"?>
<svg width="35px" height="35px" viewBox="0 0 35 35" version="1.1" xmlns="http://www.w3.org/2000/svg" xmlns:xlink="http://www.w3.org/1999/xlink">
    <!-- Generator: Sketch 47.1 (45422) - http://www.bohemiancoding.com/sketch -->
    <title>Group 2</title>
    <desc>Created with Sketch.</desc>
    <defs></defs>
    <g id="Page-1" stroke="none" stroke-width="1" fill="none" fill-rule="evenodd">
        <g id="Group-2">
            <g id="Group">
                <g id="noun_945177_cc">
                    <path d="M9.163,4.592 C4.991,7.2765 2.6355,11.2 2.1665,16.254 C1.89101278,19.2634137 2.5328152,22.2857418 4.0075,24.9235 L4.0075,24.941 C4.29553089,25.4702376 4.41749387,26.0739543 4.3575,26.6735 L4.3575,26.7015 C4.2595,27.4785 4.144,28.2555 4.0355,29.0045 C3.98183333,29.3708333 3.92933333,29.736 3.878,30.1 L3.815,30.562 L3.717,31.262 C5.2465,31.052 6.706,30.8525 8.176,30.6565 C8.30597547,30.639615 8.4369336,30.6314301 8.568,30.632 C9.09550183,30.6344979 9.61445759,30.7654381 10.08,31.0135 C12.3283673,32.2381622 14.8452722,32.8863283 17.4055,32.9 C18.5532722,32.8968837 19.6973703,32.7701529 20.818,32.522 C25.1315621,31.5688813 28.8281014,28.8092235 30.968,24.9445 C33.1219432,21.0912472 33.4887372,16.4903477 31.9725,12.3445 C29.8255273,6.21047351 24.0374051,2.10236639 17.5385,2.1 L17.5385,0 L17.5385,0 L17.5385,2.1 C14.5651402,2.10813008 11.6571746,2.97335008 9.163,4.592 Z M24.6155,15.4875 C25.7260536,15.4913628 26.6235676,16.3940931 26.6209946,17.5046504 C26.6184216,18.6152078 25.7167344,19.5137696 24.6061748,19.5124865 C23.4956152,19.5112034 22.5960067,18.6105604 22.596,17.5 C22.5941177,16.9644616 22.806507,16.4504158 23.1858491,16.0723886 C23.5651912,15.6943614 24.0799713,15.4837582 24.6155,15.4875 L24.6155,15.4875 Z M10.402,19.509 C9.58423729,19.51461 8.84439219,19.0248141 8.53017732,18.2698066 C8.21596246,17.514799 8.38986432,16.6447249 8.97015244,16.0685018 C9.55044056,15.4922788 10.4217157,15.3244977 11.1744957,15.6440123 C11.9272757,15.9635269 12.4118586,16.7067969 12.4005,17.5245 C12.3890223,18.6211753 11.4987289,19.505232 10.402,19.509 L10.402,19.509 Z M19.502,17.507 C19.4991566,18.3212902 19.005892,19.0536217 18.2523651,19.3622862 C17.4988382,19.6709508 16.6335634,19.4951129 16.0602808,18.9168191 C15.4869982,18.3385253 15.3186976,17.471753 15.6339084,16.7209409 C15.9491192,15.9701288 16.6857159,15.4832565 17.5,15.4875 C18.6061442,15.4989029 19.4995225,16.3938377 19.509,17.5 L19.502,17.507 Z" id="Shape"></path>
                    <path d="M2.289,26.4355 C2.1455,27.5625 1.9705,28.7 1.813,29.8095 C1.6345,31.087 1.463,32.3575 1.2775,33.698 L1.6275,33.6735 C3.906,33.355 6.1775,33.04 8.477,32.7355 L8.5925,32.7355 C8.77299575,32.7369564 8.95055367,32.7813459 9.1105,32.865 C11.655962,34.252789 14.5063362,34.9864297 17.4055,35 C18.700455,34.9965388 19.9912574,34.8533771 21.2555,34.573 C29.9325106,32.6212982 35.7656458,24.4717315 34.8149376,15.6288922 C33.8642294,6.78605291 26.4320778,0.0626589675 17.5385,-7.10542736e-15 L17.5385,2.1 C24.0443701,2.09745639 29.8402032,6.20985837 31.9865,12.3515 C33.5027372,16.4973477 33.1359432,21.0982472 30.982,24.9515 C28.8421014,28.8162235 25.1455621,31.5758813 20.832,32.529 C19.7065428,32.7758003 18.5576998,32.9001898 17.4055,32.9 C14.8497185,32.8829443 12.3378826,32.2336425 10.094,31.01 C9.62845759,30.7619381 9.10950183,30.6309979 8.582,30.6285 C8.4509336,30.6279301 8.31997547,30.636115 8.19,30.653 C6.7235,30.849 5.2605,31.0485 3.731,31.2585 L3.829,30.5585 L3.892,30.1 C3.94333333,29.7336667 3.99583333,29.3685 4.0495,29.0045 C4.158,28.252 4.27,27.475 4.3715,26.7015 L4.3715,26.6735 C4.43149387,26.0739543 4.30953089,25.4702376 4.0215,24.941 L4.0215,24.9235 C2.54196357,22.2872651 1.89526098,19.2648457 2.1665,16.254 C2.6355,11.2 4.991,7.2765 9.1665,4.592 C11.6596746,2.97399489 14.566332,2.10880254 17.5385,2.1 L17.5385,-5.16253706e-15 L17.5385,-5.16253706e-15 C14.1610401,0.00492123306 10.8571618,0.98708961 8.0255,2.828 C3.2445,5.9045 0.602,10.395 0.0735,16.058 C-0.240896367,19.4835547 0.491350168,22.923893 2.1735,25.9245 C2.25938898,26.0805443 2.29942775,26.2576855 2.289,26.4355 Z" id="Shape" fill="#FFFFFF" fill-rule="nonzero"></path>
                    <path d="M15.4875,17.5 C15.4875,18.6114731 16.3885269,19.5125 17.5,19.5125 C18.6114731,19.5125 19.5125,18.6114731 19.5125,17.5 C19.5125,16.3885269 18.6114731,15.4875 17.5,15.4875 C16.3932713,15.4988714 15.4988714,16.3932713 15.4875,17.5 L15.4875,17.5 Z" id="Shape" fill="#FFFFFF" fill-rule="nonzero"></path>
                    <path d="M10.4195,15.4875 C9.60531048,15.4762324 8.8645608,15.9566995 8.54286726,16.7047267 C8.22117372,17.452754 8.38193521,18.3209213 8.95014422,18.9041623 C9.51835323,19.4874033 10.382028,19.6707737 11.1381982,19.3687172 C11.8943684,19.0666607 12.3940092,18.3387062 12.404,17.5245 C12.4124124,16.9907932 12.2077179,16.4757517 11.8352424,16.0934223 C11.4627669,15.711093 10.9532445,15.493023 10.4195,15.4875 L10.4195,15.4875 Z" id="Shape" fill="#FFFFFF" fill-rule="nonzero"></path>
                    <path d="M24.598,19.5125 C25.4129223,19.5167518 26.1499692,19.0291269 26.464777,18.2774538 C26.7795849,17.5257807 26.6100053,16.658452 26.0352695,16.0807019 C25.4605338,15.5029517 24.594104,15.3288375 23.8407944,15.639709 C23.0874848,15.9505805 22.5960111,16.6850666 22.596,17.5 C22.5959849,18.6073854 23.4906296,19.5067223 24.598,19.5125 Z" id="Shape" fill="#FFFFFF" fill-rule="nonzero"></path>
                </g>
            </g>
        </g>
    </g>
</svg>