<?xml version="1.0" encoding="UTF-8"?>
<svg width="58px" height="58px" viewBox="0 0 58 58" version="1.1" xmlns="http://www.w3.org/2000/svg" xmlns:xlink="http://www.w3.org/1999/xlink">
    <!-- Generator: Sketch 47.1 (45422) - http://www.bohemiancoding.com/sketch -->
    <title>Group 2</title>
    <desc>Created with Sketch.</desc>
    <defs></defs>
    <g id="Page-1" stroke="none" stroke-width="1" fill="none" fill-rule="evenodd">
        <g id="Group-2" transform="translate(2.000000, 2.000000)" fill="#009C33">
            <g id="noun_184423_cc" stroke-width="3" stroke="#009C33" fill-rule="nonzero">
                <g id="Group">
                    <g id="Shape">
                        <path d="M27,54 C12.112,54 0,41.888 0,27 C0,12.112 12.112,0 27,0 C41.888,0 54,12.112 54,27 C54,41.888 41.888,54 27,54 L27,54 Z M2,27 C2,40.785 13.215,52 27,52 C40.785,52 52,40.785 52,27 C52,13.215 40.785,2 27,2 C13.215,2 2,13.215 2,27 Z"></path>
                    </g>
                </g>
            </g>
            <text id="2" font-family="AvenirNext-Regular, Avenir Next" font-size="36" font-weight="normal">
                <tspan x="17" y="39">2</tspan>
            </text>
        </g>
    </g>
</svg>