<?xml version="1.0" encoding="UTF-8"?>
<svg width="24px" height="22px" viewBox="0 0 24 22" version="1.1" xmlns="http://www.w3.org/2000/svg" xmlns:xlink="http://www.w3.org/1999/xlink">
    <!-- Generator: Sketch 47.1 (45422) - http://www.bohemiancoding.com/sketch -->
    <title>Group 3</title>
    <desc>Created with Sketch.</desc>
    <defs></defs>
    <g id="Wireframes-propuestos" stroke="none" stroke-width="1" fill="none" fill-rule="evenodd">
        <g id="B11.3" transform="translate(-561.000000, -688.000000)" fill="#848484">
            <g id="Group-4" transform="translate(561.000000, 678.000000)">
                <g id="Group-3" transform="translate(0.000000, 10.000000)">
                    <path d="M22.4256003,1.17365217 C21.6662403,0.416565217 20.6563203,0 19.5820803,0 C18.5078403,0 17.4984003,0.417043478 16.7395203,1.17365217 L5.90304032,11.9694348 C4.79664032,13.0737391 4.79664032,14.8686522 5.90304032,15.972 C6.44016032,16.5066957 7.15296032,16.8013043 7.91184032,16.8013043 C8.67024032,16.8013043 9.38352032,16.5066957 9.92016032,15.972 L17.8353603,8.08547826 C18.0225603,7.89847826 18.0225603,7.59573913 17.8353603,7.40921739 C17.6476803,7.22221739 17.3438403,7.22221739 17.1566403,7.40921739 L9.24096032,15.2957391 C8.53056032,16.0040435 7.29264032,16.0035652 6.58224032,15.2957391 C5.84976032,14.5654348 5.84976032,13.3764783 6.58224032,12.6461739 L17.4182403,1.84991304 C17.9956803,1.27408696 18.7641603,0.956521739 19.5820803,0.956521739 C20.4000003,0.956521739 21.1689603,1.2736087 21.7468803,1.84991304 C22.9396803,3.03886957 22.9396803,4.97343478 21.7468803,6.16191304 L8.19840032,19.6613043 C6.54480032,21.3079565 3.85488032,21.3079565 2.20176032,19.6613043 C1.40064032,18.8635652 0.960000319,17.8023043 0.960000319,16.6731304 C0.960000319,15.5444348 1.40016032,14.4831739 2.20080032,13.6854348 L12.8289603,3.09721739 C13.0161603,2.91021739 13.0161603,2.60747826 12.8289603,2.42095652 C12.6412803,2.23395652 12.3374403,2.23395652 12.1502403,2.42095652 L1.52208032,13.0091739 C0.540000319,13.9876957 -0.000479680559,15.2885652 3.19440794e-07,16.6731304 C3.19440794e-07,18.0576957 0.540480319,19.3590435 1.52304032,20.3380435 C2.53680032,21.3471739 3.86880032,21.8522174 5.20032032,21.8522174 C6.53184032,21.8522174 7.86336032,21.3471739 8.87712032,20.3380435 L22.4256003,6.83817391 C23.9928003,5.27665217 23.9928003,2.73565217 22.4256003,1.17365217" id="Attachement"></path>
                </g>
            </g>
        </g>
    </g>
</svg>