<?xml version="1.0" encoding="UTF-8"?>
<svg width="605px" height="990px" viewBox="0 0 605 990" version="1.1" xmlns="http://www.w3.org/2000/svg" xmlns:xlink="http://www.w3.org/1999/xlink">
    <!-- Generator: Sketch 47.1 (45422) - http://www.bohemiancoding.com/sketch -->
    <title>Group</title>
    <desc>Created with Sketch.</desc>
    <defs></defs>
    <g id="Page-1" stroke="none" stroke-width="1" fill="none" fill-rule="evenodd">
        <g id="Group" transform="translate(-1.000000, 0.000000)" fill-rule="nonzero" fill="#000000">
            <g id="Shape">
                <path d="M179.804,161.941 C224.36,161.941 260.486,125.816 260.486,81.259 C260.486,36.702 224.36,0.577 179.804,0.577 C135.243,0.577 99.123,36.702 99.123,81.259 C99.123,125.816 135.243,161.941 179.804,161.941 Z"></path>
                <path d="M369,302.803 L369,284.851 C369,231.276 337.301,178.763 274.609,178.763 L93.842,178.686 C36.718,178.686 0.999,225.26 0.999,283.374 L0.999,531 C0.999,579 63.999,579 63.999,531 L63.999,290 L84.506,290 L84.419,944.191 C84.419,969.153 104.689,989.421 129.646,989.421 C154.657,989.421 174.897,969.286 174.897,944.324 L174.937,565 L195.081,565 L194.951,944.325 C194.951,969.287 215.205,989.489 240.187,989.489 C265.159,989.489 285.4,969.191 285.4,944.229 L285.593,290 L305,290 L305.116,377.055 L305.116,377.055 C305.119,379.819 305.116,387.5 305.116,388.848 C305.116,406.246 319.45,420.348 336.847,420.348 C347.965,420.348 357.731,414.583 363.336,405.885 L407,354.921 L407,257.896 L369,302.803 Z"></path>
            </g>
            <g transform="translate(416.000000, 153.000000)" id="Shape">
                <path d="M43.443,70 L147.539,70 C149.197,70 151,69.106 151,67.448 L151,35 L113,35 L113,18.987 L113,18.777 L113,18.724 C113,8.434 104.791,0.086 94.5,0.086 C84.209,0.086 76,8.395 76,18.685 L76,18.784 L76,18.993 L76,35 L40,35 L40,67.448 C40,69.106 41.785,70 43.443,70 Z M94.758,9.681 C99.734,9.681 103.724,13.706 103.724,18.682 C103.724,23.658 99.734,27.703 94.758,27.703 C89.781,27.703 85.79,23.659 85.79,18.682 C85.79,13.705 89.781,9.681 94.758,9.681 Z"></path>
                <path d="M186.16,40 L161,40 L161,76 C161,77.853 159.502,79 157.649,79 L33.542,79 C31.69,79 30,77.853 30,76 L30,40 L3.354,40 C1.501,40 0,41.444 0,43.296 L0,291.51 C0,293.363 1.502,295 3.354,295 L186.16,295 C188.013,295 190,293.362 190,291.51 L190,43.296 C190,41.444 188.013,40 186.16,40 Z M155.879,143.328 C155.781,143.473 155.68,143.615 155.577,143.756 C155.479,143.901 155.377,144.043 155.274,144.184 C155.175,144.331 155.072,144.475 154.967,144.618 C154.87,144.762 154.769,144.903 154.667,145.043 C154.568,145.189 154.466,145.333 154.362,145.475 C154.264,145.621 154.161,145.763 154.058,145.905 C153.96,146.051 153.858,146.193 153.754,146.335 C153.656,146.481 153.553,146.623 153.45,146.765 C153.353,146.909 153.252,147.049 153.151,147.189 C153.051,147.337 152.947,147.481 152.843,147.625 C152.745,147.771 152.643,147.913 152.54,148.054 C152.443,148.198 152.342,148.338 152.24,148.477 C152.14,148.625 152.037,148.77 151.932,148.914 C151.834,149.059 151.733,149.2 151.63,149.342 C151.532,149.488 151.429,149.63 151.326,149.772 C151.227,149.918 151.126,150.06 151.022,150.201 C150.924,150.346 150.823,150.487 150.72,150.628 C150.622,150.774 150.519,150.918 150.415,151.061 C150.317,151.206 150.216,151.348 150.113,151.489 C150.014,151.635 149.912,151.778 149.808,151.92 C149.71,152.065 149.609,152.207 149.506,152.348 C149.407,152.494 149.305,152.637 149.202,152.778 C149.102,152.925 149,153.068 148.895,153.211 C148.798,153.355 148.697,153.496 148.595,153.636 C148.496,153.782 148.393,153.926 148.289,154.068 C148.192,154.213 148.09,154.355 147.987,154.496 C147.889,154.642 147.787,154.784 147.683,154.925 C147.586,155.07 147.484,155.212 147.381,155.353 C147.282,155.499 147.18,155.642 147.076,155.784 C146.978,155.93 146.875,156.074 146.77,156.217 C146.673,156.361 146.572,156.502 146.47,156.642 C146.371,156.788 146.268,156.932 146.164,157.075 C146.067,157.219 145.965,157.36 145.863,157.501 C145.765,157.647 145.662,157.79 145.558,157.932 C145.46,158.078 145.358,158.22 145.255,158.362 C145.156,158.508 145.054,158.651 144.95,158.793 C144.852,158.938 144.751,159.08 144.647,159.222 C144.549,159.367 144.448,159.509 144.345,159.65 C144.246,159.797 144.143,159.94 144.039,160.083 C143.941,160.228 143.839,160.369 143.737,160.51 C143.639,160.655 143.537,160.796 143.435,160.938 C143.336,161.084 143.234,161.227 143.13,161.37 C143.031,161.516 142.929,161.659 142.825,161.801 C142.727,161.946 142.626,162.088 142.523,162.229 C142.425,162.375 142.323,162.516 142.22,162.658 C142.121,162.804 142.02,162.946 141.916,163.088 C141.817,163.235 141.714,163.379 141.609,163.522 C141.512,163.667 141.41,163.808 141.308,163.948 C141.21,164.093 141.109,164.234 141.006,164.375 C140.907,164.522 140.804,164.667 140.699,164.81 C140.602,164.955 140.5,165.097 140.397,165.238 C140.3,165.382 140.199,165.522 140.097,165.663 C139.997,165.81 139.894,165.955 139.79,166.098 C139.691,166.244 139.589,166.387 139.485,166.528 C139.387,166.674 139.284,166.817 139.181,166.959 C139.084,167.103 138.983,167.244 138.88,167.383 C138.783,167.529 138.68,167.671 138.577,167.813 C138.479,167.959 138.376,168.103 138.272,168.245 C138.173,168.391 138.07,168.535 137.966,168.677 C137.869,168.822 137.768,168.962 137.666,169.103 C137.568,169.249 137.466,169.391 137.362,169.533 C137.264,169.679 137.162,169.821 137.058,169.963 C136.961,170.108 136.859,170.25 136.756,170.391 C136.656,170.538 136.553,170.683 136.448,170.826 C136.351,170.97 136.25,171.111 136.148,171.251 C136.05,171.397 135.948,171.539 135.845,171.68 C135.745,171.827 135.642,171.971 135.538,172.114 C135.441,172.258 135.34,172.398 135.238,172.538 C135.139,172.684 135.037,172.828 134.933,172.97 C134.834,173.116 134.732,173.259 134.628,173.401 C134.53,173.547 134.428,173.689 134.325,173.83 C134.228,173.975 134.126,174.116 134.024,174.257 C133.925,174.403 133.823,174.545 133.719,174.687 C133.62,174.834 133.517,174.978 133.413,175.121 C133.315,175.266 133.214,175.407 133.111,175.548 C133.014,175.693 132.912,175.835 132.809,175.976 C132.711,176.121 132.609,176.263 132.506,176.404 C132.407,176.551 132.304,176.696 132.199,176.84 C132.101,176.985 131.999,177.127 131.896,177.268 C131.799,177.412 131.698,177.553 131.595,177.694 C131.496,177.84 131.395,177.983 131.29,178.125 C131.192,178.271 131.089,178.415 130.985,178.558 C130.887,178.704 130.785,178.845 130.682,178.987 C130.584,179.133 130.482,179.275 130.378,179.417 C130.281,179.562 130.18,179.702 130.077,179.843 C129.979,179.99 129.876,180.133 129.772,180.276 C129.673,180.422 129.57,180.566 129.466,180.708 C129.369,180.852 129.269,180.992 129.166,181.132 C129.068,181.279 128.965,181.422 128.861,181.565 C128.763,181.711 128.661,181.853 128.557,181.995 C128.459,182.14 128.358,182.281 128.256,182.422 C128.156,182.568 128.054,182.712 127.949,182.855 C127.853,182.999 127.752,183.14 127.65,183.279 C127.55,183.426 127.447,183.571 127.342,183.715 C127.244,183.861 127.141,184.004 127.038,184.146 C126.941,184.29 126.839,184.43 126.738,184.57 C126.639,184.716 126.538,184.858 126.434,185 C126.335,185.147 126.232,185.291 126.127,185.435 C126.029,185.58 125.928,185.721 125.826,185.862 C125.728,186.007 125.626,186.148 125.523,186.289 C125.424,186.436 125.321,186.581 125.216,186.723 C125.119,186.868 125.018,187.008 124.915,187.149 C124.817,187.295 124.716,187.437 124.612,187.579 C124.513,187.725 124.411,187.867 124.308,188.009 C124.209,188.155 124.108,188.297 124.005,188.438 C123.906,188.584 123.803,188.727 123.699,188.869 C123.601,189.015 123.499,189.158 123.395,189.3 C123.298,189.443 123.198,189.583 123.097,189.722 C122.997,189.87 122.893,190.015 122.787,190.16 C122.69,190.305 122.587,190.447 122.485,190.588 C122.388,190.731 122.288,190.87 122.186,191.01 C122.086,191.158 121.983,191.304 121.877,191.448 C121.779,191.593 121.678,191.734 121.575,191.875 C121.477,192.021 121.375,192.162 121.272,192.304 C121.173,192.45 121.071,192.593 120.967,192.734 C120.87,192.88 120.767,193.021 120.664,193.163 C120.567,193.308 120.465,193.449 120.363,193.59 C120.263,193.737 120.16,193.882 120.055,194.025 C119.958,194.17 119.856,194.31 119.754,194.451 C119.657,194.597 119.555,194.739 119.451,194.88 C119.352,195.027 119.249,195.171 119.144,195.314 C119.047,195.458 118.947,195.598 118.844,195.738 C118.746,195.884 118.644,196.027 118.54,196.17 C118.441,196.316 118.338,196.459 118.235,196.602 C118.137,196.747 118.036,196.888 117.933,197.028 C117.835,197.174 117.733,197.317 117.629,197.458 C117.53,197.604 117.428,197.747 117.325,197.889 C117.227,198.035 117.125,198.176 117.022,198.317 C116.923,198.463 116.821,198.606 116.717,198.748 C116.62,198.893 116.518,199.033 116.416,199.174 C116.318,199.32 116.216,199.463 116.112,199.605 C116.013,199.752 115.91,199.896 115.805,200.039 C115.708,200.184 115.606,200.325 115.504,200.466 C115.406,200.611 115.304,200.752 115.202,200.893 C115.102,201.04 114.999,201.185 114.894,201.328 C114.797,201.472 114.696,201.612 114.595,201.752 C114.496,201.898 114.393,202.041 114.289,202.184 C114.191,202.331 114.087,202.474 113.983,202.617 C113.886,202.761 113.785,202.902 113.683,203.042 C113.584,203.188 113.483,203.331 113.379,203.472 C113.28,203.619 113.178,203.762 113.074,203.905 C112.977,204.049 112.876,204.189 112.774,204.329 C112.675,204.476 112.571,204.621 112.466,204.764 C112.369,204.909 112.268,205.049 112.166,205.189 C112.068,205.335 111.965,205.479 111.861,205.62 C111.762,205.767 111.659,205.91 111.556,206.052 C111.458,206.198 111.357,206.339 111.254,206.48 C111.155,206.626 111.053,206.768 110.95,206.91 C110.852,207.056 110.749,207.199 110.646,207.34 C110.548,207.485 110.445,207.627 110.343,207.769 C110.245,207.915 110.143,208.056 110.04,208.197 C109.941,208.344 109.838,208.487 109.734,208.63 C109.637,208.774 109.535,208.915 109.433,209.056 C109.334,209.202 109.233,209.345 109.129,209.487 C109.03,209.634 108.927,209.778 108.822,209.92 C108.726,210.064 108.625,210.205 108.523,210.344 C108.424,210.491 108.322,210.634 108.218,210.776 C108.12,210.922 108.018,211.063 107.915,211.204 C107.816,211.351 107.713,211.494 107.609,211.637 C107.512,211.782 107.41,211.923 107.307,212.064 C107.209,212.21 107.108,212.351 107.004,212.493 C106.905,212.64 106.802,212.784 106.698,212.927 C106.601,213.071 106.5,213.212 106.397,213.352 C106.299,213.498 106.197,213.64 106.093,213.783 C105.995,213.929 105.893,214.072 105.788,214.214 C105.691,214.36 105.589,214.502 105.485,214.643 C105.387,214.789 105.285,214.931 105.182,215.072 C105.084,215.217 104.983,215.358 104.88,215.5 C104.78,215.647 104.677,215.792 104.572,215.935 C104.476,216.079 104.375,216.22 104.273,216.359 C104.174,216.506 104.072,216.649 103.968,216.791 C103.869,216.937 103.766,217.08 103.662,217.223 C103.565,217.368 103.464,217.509 103.361,217.649 C103.263,217.795 103.161,217.938 103.057,218.08 C102.958,218.226 102.856,218.369 102.752,218.512 C102.654,218.657 102.553,218.798 102.45,218.938 C102.352,219.084 102.25,219.226 102.146,219.368 C102.047,219.515 101.945,219.658 101.841,219.801 C101.743,219.946 101.642,220.088 101.539,220.228 C101.441,220.374 101.339,220.515 101.237,220.656 C101.138,220.802 101.036,220.946 100.932,221.088 C100.833,221.234 100.731,221.377 100.627,221.519 C100.53,221.665 100.428,221.805 100.325,221.946 C100.226,222.092 100.124,222.236 100.021,222.378 C99.923,222.522 99.822,222.662 99.72,222.803 C99.62,222.95 99.517,223.095 99.412,223.239 C99.315,223.383 99.214,223.523 99.112,223.663 C99.013,223.809 98.91,223.953 98.806,224.096 C98.708,224.242 98.606,224.384 98.502,224.525 C98.405,224.671 98.303,224.812 98.2,224.953 C98.102,225.099 97.999,225.242 97.896,225.385 C97.798,225.53 97.697,225.67 97.595,225.81 C97.495,225.958 97.391,226.102 97.286,226.246 C97.189,226.39 97.088,226.532 96.986,226.672 C96.887,226.818 96.784,226.962 96.68,227.104 C96.582,227.249 96.481,227.391 96.378,227.532 C96.28,227.677 96.179,227.818 96.076,227.959 C95.977,228.105 95.874,228.249 95.77,228.392 C95.672,228.537 95.571,228.679 95.468,228.82 C95.369,228.966 95.267,229.109 95.163,229.252 C92.565,233.118 88.152,235.662 83.145,235.662 C79.568,235.662 76.297,234.362 73.772,232.212 C73.706,232.157 73.64,232.099 73.575,232.043 C73.508,231.989 73.444,231.931 73.379,231.875 C73.313,231.82 73.248,231.763 73.183,231.707 C73.118,231.653 73.054,231.597 72.99,231.542 C72.923,231.487 72.858,231.428 72.791,231.372 C72.726,231.318 72.662,231.262 72.598,231.206 C72.531,231.151 72.467,231.093 72.401,231.038 C72.335,230.983 72.27,230.926 72.205,230.87 C72.14,230.816 72.075,230.759 72.01,230.703 C71.945,230.65 71.881,230.592 71.817,230.537 C71.749,230.481 71.683,230.423 71.617,230.366 C71.552,230.313 71.488,230.256 71.424,230.201 C71.358,230.146 71.293,230.088 71.227,230.032 C71.162,229.978 71.098,229.922 71.034,229.866 C70.966,229.81 70.9,229.751 70.834,229.694 C70.769,229.641 70.706,229.585 70.643,229.53 C70.576,229.475 70.511,229.417 70.445,229.361 C70.379,229.307 70.314,229.249 70.249,229.193 C70.183,229.139 70.119,229.082 70.053,229.026 C69.988,228.972 69.924,228.915 69.86,228.86 C69.793,228.806 69.729,228.748 69.663,228.692 C69.597,228.638 69.533,228.581 69.468,228.525 C69.402,228.47 69.337,228.412 69.271,228.356 C69.205,228.301 69.14,228.244 69.074,228.187 C69.01,228.134 68.946,228.077 68.882,228.022 C68.816,227.967 68.751,227.91 68.686,227.854 C68.619,227.799 68.554,227.741 68.488,227.685 C68.423,227.63 68.358,227.574 68.294,227.518 C68.228,227.464 68.164,227.406 68.099,227.351 C68.032,227.296 67.967,227.239 67.902,227.183 C67.836,227.128 67.771,227.071 67.706,227.015 C67.641,226.962 67.577,226.905 67.513,226.85 C67.446,226.795 67.381,226.737 67.315,226.681 C67.249,226.626 67.184,226.569 67.119,226.513 C67.054,226.459 66.991,226.402 66.926,226.347 C66.86,226.292 66.794,226.234 66.728,226.178 C66.662,226.123 66.597,226.066 66.533,226.01 C66.467,225.956 66.403,225.899 66.338,225.843 C66.272,225.788 66.208,225.731 66.143,225.676 C66.076,225.621 66.012,225.563 65.946,225.508 C65.88,225.454 65.816,225.396 65.751,225.341 C65.685,225.286 65.62,225.229 65.555,225.173 C65.488,225.118 65.424,225.061 65.359,225.006 C65.293,224.951 65.229,224.895 65.164,224.839 C65.099,224.784 65.034,224.727 64.969,224.672 C64.903,224.617 64.839,224.56 64.773,224.505 C64.707,224.45 64.642,224.393 64.577,224.337 C64.511,224.283 64.446,224.225 64.381,224.169 C64.315,224.115 64.25,224.057 64.185,224.002 C64.12,223.948 64.057,223.892 63.992,223.836 C63.925,223.781 63.86,223.723 63.794,223.667 C63.729,223.613 63.665,223.556 63.601,223.501 C63.534,223.445 63.468,223.387 63.401,223.331 C63.337,223.277 63.273,223.22 63.209,223.166 C63.142,223.11 63.077,223.053 63.011,222.997 C62.946,222.942 62.881,222.885 62.816,222.83 C62.751,222.776 62.687,222.72 62.623,222.665 C62.556,222.609 62.491,222.551 62.425,222.495 C62.359,222.441 62.294,222.383 62.229,222.328 C62.163,222.274 62.1,222.217 62.035,222.162 C61.969,222.107 61.903,222.049 61.838,221.993 C61.772,221.939 61.707,221.881 61.642,221.826 C61.577,221.772 61.513,221.715 61.449,221.66 C61.383,221.606 61.318,221.549 61.254,221.493 C61.186,221.437 61.12,221.378 61.053,221.321 C60.989,221.268 60.926,221.212 60.863,221.158 C60.796,221.102 60.73,221.045 60.664,220.988 C60.598,220.933 60.534,220.876 60.469,220.821 C60.404,220.767 60.34,220.711 60.276,220.656 C60.209,220.6 60.143,220.542 60.077,220.486 C60.012,220.431 59.948,220.375 59.883,220.319 C59.817,220.264 59.751,220.206 59.686,220.15 C59.62,220.096 59.556,220.039 59.492,219.984 C59.426,219.929 59.361,219.872 59.296,219.817 C59.229,219.761 59.164,219.704 59.099,219.648 C59.033,219.594 58.97,219.537 58.905,219.482 C58.84,219.428 58.776,219.371 58.712,219.316 C58.644,219.26 58.578,219.202 58.512,219.145 C58.446,219.09 58.382,219.033 58.316,218.978 C58.251,218.924 58.187,218.867 58.123,218.812 C58.056,218.757 57.992,218.7 57.926,218.644 C57.86,218.589 57.795,218.532 57.73,218.476 C57.664,218.421 57.6,218.365 57.536,218.309 C57.47,218.255 57.407,218.199 57.342,218.143 C57.274,218.087 57.209,218.029 57.142,217.972 C57.076,217.917 57.012,217.861 56.948,217.805 C56.882,217.751 56.819,217.695 56.755,217.639 C56.688,217.583 56.622,217.525 56.555,217.468 C56.49,217.414 56.427,217.358 56.363,217.303 C56.296,217.248 56.232,217.191 56.166,217.135 C56.1,217.081 56.036,217.023 55.971,216.968 C55.905,216.913 55.84,216.855 55.774,216.799 C55.708,216.744 55.644,216.688 55.579,216.632 C55.513,216.577 55.448,216.52 55.383,216.464 C55.318,216.41 55.254,216.353 55.19,216.298 C55.123,216.243 55.058,216.185 54.991,216.129 C54.926,216.074 54.861,216.017 54.797,215.962 C54.731,215.908 54.667,215.851 54.603,215.796 C54.536,215.741 54.471,215.683 54.405,215.627 C54.338,215.571 54.272,215.514 54.207,215.457 C54.142,215.404 54.08,215.348 54.016,215.294 C53.951,215.239 53.886,215.182 53.821,215.126 C53.754,215.071 53.688,215.013 53.622,214.957 C53.556,214.902 53.491,214.845 53.426,214.789 C53.361,214.735 53.297,214.679 53.233,214.624 C53.167,214.568 53.101,214.511 53.036,214.455 C52.969,214.4 52.905,214.343 52.839,214.287 C52.774,214.233 52.71,214.176 52.646,214.121 C52.58,214.066 52.516,214.01 52.451,213.954 C52.384,213.898 52.319,213.841 52.253,213.784 C52.187,213.73 52.122,213.673 52.058,213.617 C51.992,213.563 51.929,213.506 51.864,213.451 C51.797,213.395 51.731,213.337 51.665,213.28 C51.599,213.225 51.534,213.168 51.47,213.113 C51.405,213.059 51.341,213.003 51.278,212.949 C51.212,212.894 51.147,212.837 51.082,212.781 C51.015,212.726 50.949,212.667 50.883,212.61 C50.817,212.557 50.754,212.5 50.69,212.445 C50.624,212.391 50.56,212.334 50.495,212.278 C50.428,212.223 50.362,212.164 50.296,212.108 C50.23,212.053 50.165,211.996 50.1,211.941 C50.036,211.887 49.972,211.831 49.908,211.776 C49.842,211.722 49.777,211.664 49.712,211.609 C49.645,211.554 49.58,211.496 49.514,211.44 C49.449,211.386 49.385,211.329 49.32,211.273 C49.254,211.218 49.189,211.16 49.123,211.104 C49.057,211.05 48.993,210.993 48.928,210.937 C48.863,210.883 48.798,210.826 48.733,210.771 C48.668,210.716 48.604,210.659 48.539,210.604 C48.472,210.548 48.406,210.49 48.34,210.433 C48.274,210.379 48.21,210.322 48.145,210.266 C48.079,210.212 48.016,210.155 47.951,210.1 C47.885,210.045 47.82,209.988 47.755,209.932 C47.689,209.877 47.624,209.82 47.559,209.764 C47.493,209.71 47.429,209.653 47.364,209.597 C47.299,209.543 47.234,209.486 47.169,209.43 C47.102,209.375 47.037,209.317 46.971,209.261 C46.905,209.206 46.84,209.148 46.775,209.093 C46.71,209.039 46.646,208.982 46.582,208.926 C46.516,208.872 46.452,208.814 46.387,208.759 C46.32,208.704 46.255,208.646 46.189,208.59 C46.123,208.535 46.059,208.479 45.994,208.423 C45.928,208.368 45.864,208.311 45.799,208.256 C45.733,208.201 45.668,208.144 45.604,208.089 C45.537,208.034 45.472,207.976 45.406,207.92 C45.341,207.865 45.276,207.809 45.212,207.753 C45.147,207.699 45.083,207.642 45.018,207.587 C44.951,207.531 44.886,207.474 44.82,207.418 C44.754,207.363 44.69,207.306 44.625,207.251 C44.559,207.196 44.494,207.139 44.428,207.083 C44.363,207.029 44.299,206.972 44.235,206.917 C44.168,206.861 44.103,206.804 44.037,206.747 C43.971,206.693 43.907,206.636 43.842,206.581 C43.777,206.526 43.713,206.47 43.649,206.414 C43.582,206.359 43.516,206.301 43.451,206.245 C43.384,206.19 43.32,206.133 43.255,206.078 C43.19,206.023 43.126,205.967 43.061,205.911 C42.995,205.856 42.93,205.799 42.864,205.743 C42.797,205.688 42.732,205.63 42.666,205.573 C42.601,205.52 42.539,205.464 42.476,205.41 C42.409,205.355 42.344,205.297 42.278,205.241 C42.212,205.187 42.148,205.13 42.083,205.074 C42.017,205.019 41.952,204.962 41.887,204.906 C41.82,204.851 41.755,204.794 41.69,204.738 C41.625,204.684 41.561,204.627 41.497,204.572 C41.43,204.517 41.364,204.459 41.299,204.403 C41.233,204.349 41.169,204.292 41.104,204.236 C41.039,204.182 40.975,204.125 40.91,204.069 C40.843,204.013 40.777,203.956 40.711,203.899 C40.646,203.845 40.582,203.788 40.518,203.733 C40.451,203.678 40.386,203.621 40.321,203.565 C40.255,203.511 40.191,203.454 40.126,203.398 C40.06,203.343 39.995,203.286 39.93,203.23 C39.865,203.176 39.8,203.119 39.735,203.063 C39.669,203.009 39.605,202.952 39.54,202.896 C39.473,202.841 39.408,202.783 39.342,202.726 C39.277,202.672 39.213,202.616 39.149,202.561 C39.083,202.506 39.017,202.448 38.952,202.391 C38.886,202.337 38.822,202.28 38.757,202.224 C38.691,202.169 38.626,202.112 38.56,202.055 C38.495,202.001 38.431,201.945 38.366,201.889 C38.301,201.835 38.236,201.777 38.171,201.721 C38.104,201.666 38.038,201.608 37.972,201.552 C37.907,201.498 37.844,201.442 37.781,201.387 C37.714,201.332 37.648,201.274 37.583,201.218 C37.517,201.163 37.452,201.106 37.387,201.05 C37.321,200.996 37.257,200.939 37.192,200.883 C37.126,200.828 37.061,200.771 36.997,200.715 C36.929,200.66 36.865,200.603 36.799,200.547 C36.734,200.493 36.67,200.437 36.607,200.382 C36.541,200.327 36.476,200.27 36.411,200.215 C36.345,200.16 36.28,200.103 36.215,200.047 C36.148,199.992 36.082,199.934 36.016,199.877 C35.951,199.823 35.888,199.767 35.823,199.711 C35.757,199.656 35.691,199.598 35.626,199.541 C35.56,199.487 35.497,199.431 35.433,199.376 C35.365,199.321 35.301,199.263 35.235,199.207 C35.17,199.153 35.106,199.096 35.042,199.041 C34.975,198.985 34.908,198.927 34.842,198.87 C34.777,198.817 34.715,198.761 34.651,198.706 C31.42,196.052 29.357,192.026 29.357,187.518 C29.357,179.527 35.836,173.048 43.827,173.048 C47.405,173.048 50.677,174.349 53.203,176.501 C53.268,176.555 53.331,176.611 53.394,176.666 C53.461,176.721 53.526,176.778 53.592,176.834 C53.658,176.889 53.723,176.946 53.788,177.002 C53.854,177.057 53.919,177.114 53.983,177.17 C54.049,177.224 54.114,177.282 54.179,177.337 C54.245,177.392 54.31,177.449 54.375,177.505 C54.441,177.56 54.506,177.617 54.57,177.672 C54.636,177.726 54.7,177.783 54.766,177.839 C54.831,177.893 54.896,177.95 54.96,178.006 C55.028,178.061 55.094,178.12 55.16,178.176 C55.225,178.23 55.288,178.286 55.352,178.341 C55.418,178.396 55.482,178.453 55.547,178.509 C55.613,178.564 55.679,178.621 55.744,178.677 C55.811,178.733 55.876,178.79 55.941,178.846 C56.007,178.9 56.07,178.956 56.135,179.012 C56.2,179.066 56.264,179.123 56.329,179.179 C56.396,179.235 56.462,179.293 56.529,179.35 C56.594,179.404 56.657,179.46 56.721,179.515 C56.787,179.57 56.852,179.627 56.917,179.683 C56.983,179.738 57.048,179.795 57.112,179.85 C57.179,179.906 57.245,179.964 57.311,180.02 C57.376,180.074 57.44,180.131 57.504,180.186 C57.57,180.24 57.635,180.298 57.699,180.353 C57.766,180.408 57.831,180.466 57.896,180.522 C57.962,180.577 58.026,180.633 58.09,180.688 C58.156,180.742 58.22,180.799 58.285,180.855 C58.352,180.911 58.418,180.969 58.484,181.026 C58.55,181.08 58.613,181.137 58.678,181.192 C58.744,181.247 58.808,181.304 58.873,181.359 C58.94,181.414 59.004,181.471 59.069,181.527 C59.136,181.581 59.2,181.639 59.265,181.694 C59.331,181.748 59.395,181.805 59.46,181.861 C59.526,181.915 59.589,181.972 59.654,182.028 C59.722,182.084 59.788,182.142 59.855,182.199 C59.919,182.253 59.982,182.309 60.046,182.364 C60.113,182.419 60.178,182.477 60.244,182.533 C60.31,182.587 60.374,182.644 60.439,182.699 C60.505,182.754 60.57,182.812 60.635,182.867 C60.7,182.921 60.764,182.978 60.828,183.033 C60.894,183.088 60.958,183.145 61.023,183.2 C61.091,183.256 61.158,183.315 61.224,183.372 C61.29,183.426 61.353,183.482 61.417,183.537 C61.482,183.591 61.547,183.648 61.611,183.704 C61.678,183.758 61.743,183.816 61.808,183.871 C61.874,183.926 61.938,183.983 62.003,184.038 C62.069,184.092 62.133,184.149 62.198,184.205 C62.265,184.26 62.331,184.318 62.398,184.375 C62.462,184.428 62.526,184.484 62.589,184.539 C62.655,184.594 62.719,184.651 62.785,184.707 C62.852,184.762 62.917,184.82 62.984,184.877 C63.048,184.93 63.112,184.986 63.175,185.041 C63.242,185.096 63.307,185.153 63.372,185.209 C63.439,185.264 63.504,185.322 63.569,185.378 C63.634,185.432 63.698,185.489 63.763,185.545 C63.83,185.6 63.895,185.658 63.961,185.714 C64.027,185.768 64.091,185.825 64.156,185.881 C64.221,185.936 64.285,185.992 64.35,186.048 C64.416,186.103 64.481,186.16 64.546,186.216 C64.612,186.271 64.678,186.328 64.743,186.384 C64.808,186.438 64.873,186.495 64.937,186.551 C65.003,186.605 65.067,186.661 65.132,186.717 C65.198,186.772 65.264,186.83 65.33,186.887 C65.396,186.941 65.46,186.998 65.524,187.054 C65.59,187.108 65.655,187.165 65.719,187.221 C65.785,187.276 65.85,187.333 65.915,187.389 C65.982,187.444 66.047,187.501 66.112,187.557 C66.178,187.611 66.241,187.668 66.306,187.724 C66.372,187.778 66.437,187.836 66.502,187.892 C66.569,187.947 66.634,188.005 66.7,188.061 C66.765,188.115 66.829,188.172 66.894,188.228 C66.959,188.282 67.024,188.34 67.089,188.395 C67.155,188.449 67.219,188.506 67.284,188.562 C67.351,188.618 67.417,188.676 67.483,188.732 C67.548,188.786 67.611,188.842 67.675,188.897 C67.74,188.951 67.805,189.008 67.87,189.064 C67.938,189.12 68.004,189.178 68.07,189.235 C68.135,189.288 68.197,189.344 68.261,189.399 C68.327,189.453 68.392,189.511 68.457,189.566 C68.524,189.621 68.589,189.679 68.655,189.736 C68.721,189.79 68.785,189.848 68.85,189.903 C68.916,189.958 68.981,190.015 69.046,190.071 C69.112,190.125 69.176,190.182 69.24,190.237 C69.308,190.292 69.373,190.35 69.439,190.406 C69.503,190.46 69.566,190.516 69.63,190.571 C69.696,190.625 69.761,190.682 69.826,190.738 C69.893,190.793 69.959,190.852 70.026,190.908 C70.091,190.963 70.156,191.02 70.22,191.075 C70.286,191.129 70.349,191.185 70.414,191.241 C70.48,191.296 70.545,191.353 70.611,191.41 C70.677,191.464 70.742,191.522 70.806,191.577 C70.872,191.631 70.935,191.688 71,191.743 C71.066,191.798 71.131,191.855 71.196,191.911 C71.263,191.966 71.328,192.023 71.393,192.08 C71.46,192.135 71.524,192.192 71.59,192.248 C71.656,192.303 71.72,192.36 71.785,192.416 C71.85,192.47 71.914,192.525 71.977,192.581 C72.045,192.636 72.11,192.694 72.176,192.751 C72.242,192.805 72.305,192.862 72.37,192.918 C72.435,192.972 72.499,193.028 72.563,193.084 C72.632,193.141 72.699,193.2 72.767,193.257 C72.831,193.311 72.894,193.366 72.957,193.421 C73.023,193.476 73.088,193.532 73.153,193.588 C73.218,193.643 73.283,193.7 73.348,193.755 C73.414,193.81 73.479,193.867 73.545,193.923 C73.61,193.977 73.674,194.034 73.739,194.09 C73.805,194.145 73.87,194.202 73.936,194.259 C74.002,194.314 74.067,194.371 74.132,194.427 C74.198,194.481 74.262,194.538 74.327,194.594 C74.393,194.648 74.458,194.706 74.523,194.762 C74.588,194.816 74.652,194.872 74.716,194.927 C74.783,194.982 74.848,195.04 74.915,195.097 C74.98,195.151 75.044,195.207 75.108,195.263 C75.174,195.318 75.239,195.375 75.305,195.431 C75.371,195.486 75.436,195.543 75.501,195.6 C75.568,195.655 75.633,195.712 75.698,195.769 C75.762,195.822 75.825,195.877 75.888,195.931 C75.955,195.987 76.022,196.045 76.088,196.102 C76.154,196.156 76.219,196.214 76.284,196.27 C76.35,196.324 76.414,196.381 76.479,196.437 C76.544,196.491 76.608,196.548 76.673,196.604 C76.74,196.659 76.806,196.717 76.872,196.774 C76.937,196.828 77.001,196.884 77.065,196.94 C77.131,196.993 77.194,197.05 77.258,197.105 C77.325,197.16 77.391,197.219 77.457,197.276 C77.523,197.33 77.588,197.387 77.652,197.443 C77.718,197.497 77.783,197.554 77.847,197.609 C77.913,197.664 77.978,197.721 78.043,197.776 C78.109,197.832 78.175,197.889 78.24,197.945 C78.305,197.999 78.369,198.056 78.434,198.111 C78.5,198.165 78.564,198.223 78.629,198.278 C78.696,198.333 78.761,198.391 78.826,198.446 C78.892,198.5 78.956,198.557 79.021,198.613 C79.088,198.668 79.153,198.726 79.219,198.782 C79.284,198.836 79.347,198.892 79.411,198.947 C79.478,199.003 79.544,199.061 79.611,199.118 C79.675,199.172 79.738,199.228 79.802,199.283 C79.869,199.338 79.934,199.396 80,199.452 C80.066,199.506 80.129,199.563 80.193,199.618 C80.261,199.674 80.327,199.732 80.393,199.789 C80.43,199.819 80.466,199.851 80.502,199.882 C80.517,199.862 80.53,199.842 80.545,199.822 C80.644,199.675 80.748,199.53 80.852,199.387 C80.949,199.243 81.05,199.103 81.152,198.963 C81.251,198.817 81.353,198.674 81.457,198.531 C81.556,198.385 81.658,198.242 81.762,198.1 C81.86,197.955 81.961,197.813 82.064,197.672 C82.163,197.526 82.265,197.384 82.368,197.242 C82.466,197.097 82.568,196.954 82.672,196.813 C82.77,196.667 82.872,196.525 82.975,196.383 C83.074,196.237 83.175,196.095 83.279,195.954 C83.377,195.808 83.478,195.666 83.582,195.525 C83.68,195.379 83.783,195.236 83.887,195.094 C83.984,194.948 84.086,194.806 84.19,194.664 C84.288,194.519 84.39,194.377 84.493,194.235 C84.591,194.09 84.692,193.948 84.796,193.807 C84.895,193.66 84.997,193.516 85.102,193.373 C85.199,193.229 85.3,193.089 85.402,192.948 C85.501,192.802 85.603,192.659 85.707,192.516 C85.806,192.37 85.909,192.226 86.013,192.083 C86.11,191.939 86.211,191.798 86.313,191.659 C86.412,191.513 86.514,191.369 86.618,191.227 C86.716,191.081 86.819,190.939 86.922,190.797 C87.02,190.651 87.122,190.51 87.225,190.368 C87.323,190.222 87.426,190.08 87.529,189.939 C87.628,189.793 87.73,189.65 87.834,189.507 C87.931,189.362 88.032,189.222 88.135,189.081 C88.233,188.935 88.336,188.792 88.439,188.65 C88.538,188.504 88.64,188.361 88.744,188.218 C88.843,188.073 88.944,187.931 89.047,187.789 C89.145,187.644 89.247,187.503 89.349,187.362 C89.448,187.215 89.551,187.071 89.656,186.928 C89.752,186.784 89.854,186.643 89.956,186.503 C90.055,186.357 90.158,186.213 90.262,186.07 C90.36,185.925 90.461,185.783 90.565,185.642 C90.662,185.497 90.764,185.355 90.867,185.215 C90.966,185.068 91.069,184.923 91.173,184.78 C91.271,184.635 91.372,184.495 91.475,184.354 C91.573,184.208 91.675,184.065 91.779,183.923 C91.877,183.777 91.979,183.635 92.082,183.493 C92.18,183.348 92.282,183.206 92.385,183.065 C92.484,182.919 92.586,182.775 92.69,182.633 C92.788,182.488 92.89,182.346 92.993,182.204 C93.091,182.058 93.193,181.917 93.296,181.775 C93.395,181.629 93.498,181.486 93.602,181.343 C93.699,181.198 93.8,181.058 93.903,180.917 C94.001,180.771 94.104,180.628 94.207,180.486 C94.306,180.34 94.408,180.196 94.512,180.054 C94.61,179.909 94.712,179.767 94.815,179.626 C94.913,179.481 95.014,179.34 95.117,179.199 C95.216,179.051 95.319,178.907 95.425,178.764 C95.521,178.619 95.623,178.479 95.724,178.339 C95.823,178.193 95.925,178.051 96.028,177.909 C96.127,177.763 96.23,177.619 96.335,177.475 C96.432,177.331 96.533,177.191 96.635,177.051 C96.733,176.905 96.836,176.762 96.94,176.619 C97.038,176.473 97.141,176.33 97.244,176.188 C97.342,176.043 97.444,175.901 97.547,175.76 C97.645,175.614 97.747,175.472 97.851,175.33 C97.948,175.185 98.05,175.044 98.153,174.903 C98.251,174.757 98.354,174.613 98.458,174.47 C98.556,174.324 98.658,174.182 98.761,174.041 C98.86,173.895 98.963,173.751 99.067,173.609 C99.164,173.465 99.264,173.324 99.367,173.184 C99.466,173.037 99.568,172.893 99.673,172.751 C99.771,172.606 99.872,172.464 99.975,172.322 C100.073,172.177 100.175,172.036 100.278,171.895 C100.377,171.748 100.48,171.603 100.585,171.46 C100.683,171.315 100.784,171.174 100.886,171.034 C100.984,170.889 101.086,170.748 101.188,170.607 C101.288,170.46 101.391,170.315 101.495,170.172 C101.593,170.028 101.694,169.887 101.796,169.747 C101.895,169.601 101.997,169.458 102.101,169.315 C102.199,169.168 102.302,169.025 102.407,168.882 C102.504,168.738 102.605,168.598 102.706,168.458 C102.805,168.312 102.907,168.17 103.01,168.028 C103.11,167.881 103.213,167.736 103.317,167.593 C103.415,167.448 103.516,167.307 103.619,167.167 C103.717,167.021 103.819,166.879 103.923,166.738 C104.02,166.592 104.121,166.451 104.224,166.31 C104.323,166.163 104.426,166.019 104.53,165.876 C104.628,165.731 104.73,165.59 104.832,165.449 C104.931,165.303 105.033,165.161 105.137,165.019 C105.234,164.874 105.335,164.733 105.438,164.592 C105.538,164.445 105.641,164.3 105.746,164.157 C105.844,164.011 105.946,163.869 106.05,163.727 C106.146,163.584 106.246,163.445 106.347,163.306 C106.447,163.158 106.551,163.013 106.657,162.868 C106.754,162.724 106.855,162.584 106.956,162.444 C107.056,162.297 107.159,162.152 107.264,162.009 C107.361,161.864 107.462,161.724 107.565,161.583 C107.663,161.438 107.764,161.296 107.867,161.155 C107.966,161.008 108.069,160.865 108.173,160.722 C108.272,160.576 108.374,160.433 108.478,160.29 C108.574,160.147 108.675,160.007 108.776,159.869 C108.876,159.722 108.979,159.577 109.083,159.434 C109.182,159.288 109.283,159.146 109.387,159.005 C109.485,158.858 109.588,158.715 109.692,158.572 C109.789,158.428 109.891,158.288 109.993,158.148 C110.091,158.002 110.193,157.86 110.296,157.718 C110.395,157.571 110.498,157.427 110.603,157.283 C110.701,157.138 110.802,156.997 110.905,156.856 C111.003,156.71 111.105,156.569 111.208,156.427 C111.305,156.281 111.408,156.14 111.511,155.998 C111.61,155.851 111.713,155.707 111.818,155.564 C111.915,155.419 112.016,155.279 112.118,155.138 C112.216,154.993 112.318,154.851 112.421,154.709 C112.52,154.563 112.622,154.421 112.725,154.279 C112.824,154.132 112.927,153.988 113.031,153.845 C113.129,153.7 113.23,153.559 113.333,153.419 C113.431,153.273 113.533,153.131 113.637,152.989 C113.735,152.844 113.836,152.703 113.938,152.562 C114.038,152.414 114.141,152.27 114.246,152.126 C114.344,151.981 114.446,151.84 114.548,151.699 C114.646,151.555 114.746,151.414 114.849,151.274 C114.948,151.127 115.051,150.983 115.155,150.84 C115.253,150.695 115.355,150.553 115.458,150.412 C115.557,150.266 115.66,150.122 115.764,149.979 C115.861,149.834 115.963,149.694 116.065,149.553 C116.163,149.408 116.264,149.266 116.367,149.125 C116.466,148.979 116.568,148.836 116.672,148.694 C116.771,148.547 116.874,148.403 116.978,148.26 C117.075,148.116 117.176,147.976 117.278,147.836 C117.377,147.69 117.48,147.546 117.584,147.404 C117.682,147.258 117.785,147.115 117.888,146.972 C117.986,146.827 118.087,146.686 118.19,146.545 C118.289,146.399 118.391,146.257 118.494,146.116 C118.592,145.971 118.693,145.829 118.796,145.688 C118.895,145.542 118.997,145.398 119.102,145.255 C119.2,145.109 119.302,144.966 119.406,144.824 C119.503,144.679 119.604,144.539 119.707,144.398 C119.805,144.252 119.907,144.109 120.011,143.967 C120.111,143.82 120.213,143.677 120.318,143.534 C120.415,143.39 120.516,143.249 120.618,143.109 C120.718,142.962 120.821,142.818 120.925,142.674 C121.022,142.53 121.123,142.39 121.224,142.251 C121.324,142.104 121.426,141.961 121.53,141.818 C121.628,141.672 121.73,141.53 121.834,141.389 C121.931,141.244 122.033,141.102 122.135,140.961 C122.234,140.815 122.337,140.672 122.441,140.529 C122.539,140.383 122.642,140.24 122.745,140.097 C122.844,139.951 122.946,139.809 123.05,139.667 C123.147,139.522 123.249,139.381 123.351,139.24 C123.449,139.095 123.551,138.953 123.654,138.811 C123.752,138.665 123.854,138.523 123.958,138.381 C124.057,138.234 124.16,138.09 124.264,137.947 C124.361,137.804 124.461,137.664 124.563,137.525 C124.662,137.378 124.765,137.233 124.87,137.09 C124.968,136.944 125.07,136.802 125.174,136.66 C125.272,136.514 125.374,136.373 125.477,136.231 C125.575,136.086 125.677,135.944 125.78,135.803 C125.878,135.658 125.979,135.516 126.082,135.375 C126.181,135.229 126.283,135.086 126.387,134.943 C126.486,134.797 126.588,134.654 126.692,134.511 C126.789,134.367 126.889,134.228 126.991,134.088 C127.092,133.939 127.196,133.794 127.301,133.65 C127.398,133.506 127.499,133.365 127.601,133.225 C127.7,133.079 127.802,132.937 127.905,132.795 C128.004,132.649 128.106,132.506 128.21,132.364 C128.307,132.22 128.407,132.079 128.51,131.939 C128.609,131.792 128.713,131.647 128.818,131.503 C128.915,131.358 129.016,131.217 129.119,131.076 C129.218,130.93 129.32,130.787 129.424,130.645 C129.521,130.5 129.623,130.358 129.726,130.218 C129.824,130.072 129.927,129.929 130.03,129.787 C130.129,129.641 130.231,129.497 130.336,129.355 C130.433,129.21 130.534,129.069 130.637,128.928 C130.735,128.783 130.836,128.641 130.94,128.5 C131.038,128.354 131.141,128.21 131.245,128.068 C131.343,127.923 131.444,127.781 131.547,127.64 C131.646,127.494 131.748,127.351 131.852,127.208 C131.95,127.062 132.052,126.921 132.155,126.779 C134.753,122.913 139.166,120.369 144.175,120.369 C152.166,120.369 158.645,126.848 158.645,134.839 C158.635,138.011 157.61,140.942 155.879,143.328 Z"></path>
            </g>
        </g>
    </g>
</svg>