<?xml version="1.0" encoding="UTF-8"?>
<svg width="28px" height="27px" viewBox="0 0 28 27" version="1.1" xmlns="http://www.w3.org/2000/svg" xmlns:xlink="http://www.w3.org/1999/xlink">
    <!-- Generator: Sketch 47.1 (45422) - http://www.bohemiancoding.com/sketch -->
    <title>Group 13</title>
    <desc>Created with Sketch.</desc>
    <defs></defs>
    <g id="Look-&amp;-Feel" stroke="none" stroke-width="1" fill="none" fill-rule="evenodd">
        <g id="1-/-VALIDACION-DE-PATENTE" transform="translate(-1222.000000, -990.000000)" fill="#FFFFFF">
            <g id="Group-82" transform="translate(-3.000000, 0.000000)">
                <g id="Group-65" transform="translate(1053.000000, 990.000000)">
                    <g id="Group-3" transform="translate(172.000000, 0.000000)">
                        <g id="Message">
                            <g id="Group-13">
                                <path d="M16.3333333,22 L11.6666667,22 C11.0215,22 10.5,21.4812632 10.5,20.8421053 C10.5,20.2029474 11.0215,19.6842105 11.6666667,19.6842105 L16.3333333,19.6842105 C21.4795,19.6842105 25.6666667,15.7890526 25.6666667,11 C25.6666667,6.21094737 21.4795,2.31578947 16.3333333,2.31578947 L11.6666667,2.31578947 C6.5205,2.31578947 2.33333333,6.21094737 2.33333333,11 C2.33333333,12.6210526 2.81633333,14.2015789 3.72983333,15.5702105 C4.08566667,16.104 3.93866667,16.8218947 3.402,17.1750526 C2.86066667,17.5282105 2.13966667,17.3823158 1.78383333,16.8496842 C0.617166667,15.1001053 0,13.0772632 0,11 C0,4.93494737 5.23366667,0 11.6666667,0 L16.3333333,0 C22.7663333,0 28,4.93494737 28,11 C28,17.0650526 22.7663333,22 16.3333333,22" id="Fill-47"></path>
                                <path d="M3.4808,26.8141795 C2.5808,26.4364661 2,25.5559443 2,24.5697599 C2,24.4592393 2.0156,24.3499331 2.0444,24.243056 L3.2444,19.8878132 C3.422,19.2404779 4.0868,18.8651934 4.7228,19.0449413 C5.3612,19.2246892 5.7332,19.8951003 5.5556,20.5412211 L4.4624,24.5114633 C4.472,24.5017472 4.4816,24.4932456 4.4924,24.484744 L10.844,19.2708407 C11.0576,19.0959509 11.324,19.0000043 11.6,19.0000043 L12.8,19.0000043 C13.4636,19.0000043 14,19.5441061 14,20.2145171 C14,20.8849282 13.4636,21.4290299 12.8,21.4290299 L12.0248,21.4290299 L6.0452,26.3380905 C5.5904,26.7704571 5.0024,27 4.4024,27 C4.0928,27 3.7796,26.9392744 3.4808,26.8141795 Z" id="Fill-48"></path>
                                <path d="M14,13 C13.448,13 13,12.552 13,12 C13,11.448 13.448,11 14,11 C14.552,11 15,11.448 15,12 C15,12.552 14.552,13 14,13 Z" id="Fill-49"></path>
                                <path d="M21,12 C21,12.552 20.552,13 20,13 C19.448,13 19,12.552 19,12 C19,11.448 19.448,11 20,11 C20.552,11 21,11.448 21,12" id="Fill-50"></path>
                                <path d="M9,12 C9,12.552 8.552,13 8,13 C7.448,13 7,12.552 7,12 C7,11.448 7.448,11 8,11 C8.552,11 9,11.448 9,12" id="Fill-51"></path>
                            </g>
                        </g>
                    </g>
                </g>
            </g>
        </g>
    </g>
</svg>