<?xml version="1.0" encoding="UTF-8"?>
<svg width="17px" height="18px" viewBox="0 0 17 18" version="1.1" xmlns="http://www.w3.org/2000/svg" xmlns:xlink="http://www.w3.org/1999/xlink">
    <!-- Generator: Sketch 47.1 (45422) - http://www.bohemiancoding.com/sketch -->
    <title>Shape</title>
    <desc>Created with Sketch.</desc>
    <defs></defs>
    <g id="Page-1" stroke="none" stroke-width="1" fill="none" fill-rule="evenodd">
        <g id="noun_1263655_cc" transform="translate(8.000000, 9.000000) scale(-1, 1) translate(-8.000000, -9.000000) translate(-1.000000, 0.000000)" fill-rule="nonzero" fill="#848484">
            <path d="M0.888888889,10.0888889 L14.6888889,10.0888889 L8.31111111,16.4666667 C7.95555556,16.8222222 7.95555556,17.3777778 8.31111111,17.7333333 C8.48888889,17.9111111 8.71111111,18 8.93333333,18 C9.15555556,18 9.37777778,17.9111111 9.55555556,17.7333333 L16.2222222,11.0666667 C17.2666667,10.0222222 17.2666667,8.35555556 16.2222222,7.31111111 L9.57777778,0.666666667 C9.22222222,0.311111111 8.66666667,0.311111111 8.31111111,0.666666667 C7.95555556,1.02222222 7.95555556,1.57777778 8.31111111,1.93333333 L14.6888889,8.31111111 L0.888888889,8.31111111 C0.4,8.31111111 0,8.71111111 0,9.2 C0,9.68888889 0.4,10.0888889 0.888888889,10.0888889 Z" id="Shape"></path>
        </g>
    </g>
</svg>