<?xml version="1.0" encoding="UTF-8"?>
<svg width="28px" height="20px" viewBox="0 0 28 20" version="1.1" xmlns="http://www.w3.org/2000/svg" xmlns:xlink="http://www.w3.org/1999/xlink">
    <!-- Generator: Sketch 47.1 (45422) - http://www.bohemiancoding.com/sketch -->
    <title>noun_1363650_cc</title>
    <desc>Created with Sketch.</desc>
    <defs></defs>
    <g id="Look-&amp;-Feel" stroke="none" stroke-width="1" fill="none" fill-rule="evenodd">
        <g id="1" transform="translate(-1320.000000, -300.000000)" fill-rule="nonzero" fill="#000000">
            <g id="noun_1363650_cc" transform="translate(1320.000000, 300.000000)">
                <path d="M0,0 L0,15.9375 L4.09606987,15.9375 L4.09606987,20 L28,20 L28,4.0625 L23.9039301,4.0625 L23.9039301,0 L0,0 Z M22.7973799,18.125 L9.29868996,18.125 C9.10317352,17.2916868 8.67897639,16.5327716 8.07598253,15.9375 L23.9039301,15.9375 L23.9039301,8.103125 C24.5138316,8.75669518 25.3020129,9.2074934 26.1659389,9.396875 L26.1659389,14.759375 C24.5028466,15.1245577 23.192652,16.4336111 22.7973799,18.125 Z M1.83406114,10.696875 L1.83406114,5.334375 C3.53179598,4.96316109 4.85937209,3.60961972 5.22707424,1.875 L18.6768559,1.875 C19.0413652,3.61324705 20.3695749,4.97110429 22.069869,5.34375 L22.069869,10.696875 C20.4067767,11.0620577 19.0965821,12.3711111 18.70131,14.0625 L5.20262009,14.0625 C4.80734804,12.3711111 3.49715343,11.0620577 1.83406114,10.696875 Z M22.069869,12.65 L22.069869,14.0625 L20.6209607,14.0625 C20.898831,13.4118834 21.4209802,12.9028549 22.069869,12.65 Z M22.069869,3.384375 C21.3884055,3.1182843 20.8487749,2.57001378 20.5842795,1.875 L22.069869,1.875 L22.069869,3.384375 Z M3.31659389,1.875 C3.05422011,2.57175192 2.51560013,3.12239466 1.83406114,3.390625 L1.83406114,1.875 L3.31659389,1.875 Z M1.83406114,12.65 C2.48294996,12.9028549 3.00509911,13.4118834 3.28296943,14.0625 L1.83406114,14.0625 L1.83406114,12.65 Z M5.930131,16.7125 C6.57901983,16.9653549 7.10116898,17.4743834 7.3790393,18.125 L5.930131,18.125 L5.930131,16.7125 Z M24.7170306,18.125 C24.9935638,17.4720173 25.5158925,16.9605606 26.1659389,16.70625 L26.1659389,18.125 L24.7170306,18.125 Z M26.1659389,7.446875 C25.4856344,7.18004976 24.9472144,6.63188136 24.6834061,5.9375 L26.1659389,5.9375 L26.1659389,7.446875 Z" id="Shape"></path>
                <path d="M12.5031862,3.00000109 C10.6828492,2.99873872 9.04105233,4.09431173 8.34356462,5.77572153 C7.64607692,7.45713133 8.03030155,9.39314482 9.31702797,10.6807641 C10.6037544,11.9683833 12.539501,12.3539509 14.2213944,11.6576298 C15.9032878,10.9613088 16.9999996,9.32027246 17,7.49993515 C16.9982814,5.01662045 14.9864993,3.00344237 12.5031862,3.00000109 Z M12.5031862,10.1243766 C11.0520237,10.1243766 9.87562396,8.94797698 9.87562396,7.49681453 C9.87562396,6.04565208 11.0520237,4.86925248 12.5031862,4.86925248 C13.9543488,4.86925248 15.1307485,6.04565208 15.1307485,7.49681453 C15.1315768,8.19422784 14.8551108,8.8633605 14.3622575,9.35679911 C13.8694042,9.85023772 13.2006001,10.1274977 12.5031862,10.1274972 L12.5031862,10.1243766 Z" id="Shape"></path>
            </g>
        </g>
    </g>
</svg>