<?xml version="1.0" encoding="UTF-8"?>
<svg width="35px" height="25px" viewBox="0 0 35 25" version="1.1" xmlns="http://www.w3.org/2000/svg" xmlns:xlink="http://www.w3.org/1999/xlink">
    <!-- Generator: Sketch 47.1 (45422) - http://www.bohemiancoding.com/sketch -->
    <title>Look-&amp;-Feel</title>
    <desc>Created with Sketch.</desc>
    <defs></defs>
    <g id="Page-1" stroke="none" stroke-width="1" fill="none" fill-rule="evenodd" opacity="0.604970562">
        <g id="Look-&amp;-Feel" fill-rule="nonzero" fill="#009C33">
            <g id="6-copy-7">
                <g id="Group-29">
                    <g id="Group-57">
                        <g id="Group-55">
                            <g id="Group-26">
                                <g id="noun_1363650_cc">
                                    <path d="M0.0760869565,0 L0.0760869565,19.4021739 L5.17391304,19.4021739 L5.17391304,24.3478261 L34.923913,24.3478261 L34.923913,4.94565217 L29.826087,4.94565217 L29.826087,0 L0.0760869565,0 Z M28.448913,22.0652174 L11.648913,22.0652174 C11.4055801,21.0507491 10.8776391,20.1268524 10.1271739,19.4021739 L29.826087,19.4021739 L29.826087,9.86467391 C30.5851491,10.6603246 31.5660921,11.2091224 32.6413043,11.4396739 L32.6413043,17.9679348 C30.5714775,18.412505 28.9408549,20.0061353 28.448913,22.0652174 Z M2.35869565,13.0222826 L2.35869565,6.49402174 C4.47163739,6.04210916 6.12389244,4.39431966 6.58152174,2.2826087 L23.3206522,2.2826087 C23.7743078,4.39873553 25.4273514,6.05177914 27.5434783,6.50543478 L27.5434783,13.0222826 C25.4736514,13.4668529 23.8430288,15.0604831 23.351087,17.1195652 L6.55108696,17.1195652 C6.05914511,15.0604831 4.42852248,13.4668529 2.35869565,13.0222826 Z M27.5434783,15.4 L27.5434783,17.1195652 L25.7402174,17.1195652 C26.0860451,16.3275103 26.7358938,15.7078234 27.5434783,15.4 Z M27.5434783,4.1201087 C26.6953525,3.79617219 26.023747,3.12871243 25.6945652,2.2826087 L27.5434783,2.2826087 L27.5434783,4.1201087 Z M4.20380435,2.2826087 C3.87726307,3.13082842 3.20691538,3.80117611 2.35869565,4.12771739 L2.35869565,2.2826087 L4.20380435,2.2826087 Z M2.35869565,15.4 C3.16628011,15.7078234 3.81612878,16.3275103 4.16195652,17.1195652 L2.35869565,17.1195652 L2.35869565,15.4 Z M7.45652174,20.3456522 C8.2641062,20.6534755 8.91395487,21.2731624 9.25978261,22.0652174 L7.45652174,22.0652174 L7.45652174,20.3456522 Z M30.8380435,22.0652174 C31.1822071,21.270282 31.8322793,20.647639 32.6413043,20.3380435 L32.6413043,22.0652174 L30.8380435,22.0652174 Z M32.6413043,9.06576087 C31.794621,8.74093014 31.1245223,8.0735947 30.7961957,7.22826087 L32.6413043,7.22826087 L32.6413043,9.06576087 Z" id="Shape"></path>
                                    <path d="M14.951087,4.21521739 C12.7319143,4.21367844 10.7303999,5.54929148 9.88009271,7.59909815 C9.02978552,9.64890483 9.49819373,12.0090988 11.0668418,13.5788355 C12.6354898,15.1485721 14.9953583,15.6186175 17.0457544,14.7697325 C19.0961504,13.9208475 20.4331516,11.9202602 20.4331522,9.70108696 C20.4310571,6.67367804 17.9784937,4.21941266 14.951087,4.21521739 Z M14.951087,12.9005435 C13.1819748,12.9005435 11.7478261,11.4663947 11.7478261,9.69728261 C11.7478261,7.92817048 13.1819748,6.49402174 14.951087,6.49402174 C16.7201991,6.49402174 18.1543478,7.92817048 18.1543478,9.69728261 C18.1553576,10.5474992 17.818318,11.3632388 17.2174805,11.9647898 C16.6166431,12.5663408 15.8013041,12.9043484 14.951087,12.9043478 L14.951087,12.9005435 Z" id="Shape"></path>
                                </g>
                            </g>
                        </g>
                    </g>
                </g>
            </g>
        </g>
    </g>
</svg>