<?xml version="1.0" encoding="UTF-8"?>
<svg width="70px" height="70px" viewBox="0 0 70 70" version="1.1" xmlns="http://www.w3.org/2000/svg" xmlns:xlink="http://www.w3.org/1999/xlink">
    <!-- Generator: Sketch 47.1 (45422) - http://www.bohemiancoding.com/sketch -->
    <title>noun_1268957_cc</title>
    <desc>Created with Sketch.</desc>
    <defs></defs>
    <g id="Page-1" stroke="none" stroke-width="1" fill="none" fill-rule="evenodd">
        <g id="noun_1268957_cc" fill-rule="nonzero" fill="#848484">
            <path d="M66.42,3.58 C64.1683775,1.32054578 61.1098177,0.050537173 57.92,0.050537173 C54.7301823,0.050537173 51.6716225,1.32054578 49.42,3.58 L9.14,43.89 C8.93779375,44.0911585 8.78095211,44.3332402 8.68,44.6 L0.2,67.23 C-0.0768911703,67.9638488 0.100733951,68.7918118 0.654274213,69.3475059 C1.20781448,69.9032 2.03508144,70.0840392 2.77,69.81 L25.4,61.32 C25.6667598,61.2190479 25.9088415,61.0622062 26.11,60.86 L66.42,20.56 C68.6733245,18.3091809 69.9394399,15.254911 69.9394399,12.07 C69.9394399,8.88508902 68.6733245,5.83081909 66.42,3.58 Z M11.3,49 L21,58.7 L5.49,64.51 L11.3,49 Z M24.63,56.67 L13.32,45.37 L46.55,12.13 L57.87,23.45 L24.63,56.67 Z M63.63,17.67 L60.7,20.62 L49.38,9.3 L52.27,6.41 C55.3959317,3.28406832 60.4640683,3.28406832 63.59,6.41 C66.7159317,9.53593168 66.7159317,14.6040683 63.59,17.73 L63.63,17.67 Z" id="Shape"></path>
        </g>
    </g>
</svg>