<?xml version="1.0" encoding="UTF-8"?>
<svg width="72px" height="33px" viewBox="0 0 72 33" version="1.1" xmlns="http://www.w3.org/2000/svg" xmlns:xlink="http://www.w3.org/1999/xlink">
    <!-- Generator: Sketch 47.1 (45422) - http://www.bohemiancoding.com/sketch -->
    <title>Group 28</title>
    <desc>Created with Sketch.</desc>
    <defs></defs>
    <g id="Wireframes-propuestos" stroke="none" stroke-width="1" fill="none" fill-rule="evenodd">
        <g id="Group-28">
            <path d="M23,0 C22.4513146,0 22,0.44289994 22,1 L22,32 C22,32.5571001 22.4513146,33 23,33 L71,33 C71.5476758,33 72,32.5571001 72,32 L72,1 C72,0.44289994 71.5476758,0 71,0 L23,0 Z" id="Fill-150" fill="#FFFFFF"></path>
            <rect id="Rectangle-206" fill="#9B9B9B" x="56" y="6" width="11" height="13" rx="1"></rect>
            <rect id="Rectangle-216" fill="#9B9B9B" x="29" y="14" width="7" height="2"></rect>
            <rect id="Rectangle-217" fill="#9B9B9B" x="29" y="19" width="17" height="2"></rect>
            <rect id="Rectangle-218" fill="#9B9B9B" x="29" y="24" width="17" height="2"></rect>
            <g id="Fill-153-+-Fill-152-+-Fill-151" transform="translate(8.500000, 8.000000) scale(-1, -1) translate(-8.500000, -8.000000) translate(0.000000, 2.000000)" fill="#FFFFFF">
                <path d="M16,10 L1,10 C0.457912458,10 0,10.448 0,11 C0,11.553 0.457912458,12 1,12 L16,12 C16.5420875,12 17,11.553 17,11 C17,10.448 16.5420875,10 16,10" id="Fill-153"></path>
                <path d="M0.705882353,7 L11.2941176,7 C11.6767871,7 12,6.552 12,6 C12,5.448 11.6767871,5 11.2941176,5 L0.705882353,5 C0.32321289,5 0,5.448 0,6 C0,6.552 0.32321289,7 0.705882353,7" id="Fill-152"></path>
                <path d="M1,2 L6,2 C6.54698132,2 7,1.553 7,1 C7,0.448 6.54698132,0 6,0 L1,0 C0.454032141,0 0,0.448 0,1 C0,1.553 0.454032141,2 1,2" id="Fill-151"></path>
            </g>
        </g>
    </g>
</svg>