<?xml version="1.0" encoding="UTF-8"?>
<svg width="70px" height="70px" viewBox="0 0 70 70" version="1.1" xmlns="http://www.w3.org/2000/svg" xmlns:xlink="http://www.w3.org/1999/xlink">
    <!-- Generator: Sketch 47.1 (45422) - http://www.bohemiancoding.com/sketch -->
    <title>noun_196473_cc</title>
    <desc>Created with Sketch.</desc>
    <defs></defs>
    <g id="Page-1" stroke="none" stroke-width="1" fill="none" fill-rule="evenodd">
        <g id="noun_196473_cc" fill-rule="nonzero" fill="#FFFFFF">
            <path d="M24.5,28.9 C24.5,24.7 28,21.2 32.2,21.2 L33.3,21.2 L33.3,17.1 L36.6,17.1 L36.6,21.2 L41.9,21.2 L41.9,24.5 L32.2,24.5 C29.8,24.5 27.8,26.5 27.8,28.9 C27.8,31.3 29.8,33.3 32.2,33.3 L37.7,33.3 C41.9,33.3 45.4,36.8 45.4,41 C45.4,45.2 41.9,48.7 37.7,48.7 L36.6,48.7 L36.6,52.9 L33.3,52.9 L33.3,48.7 L27.8,48.7 L27.8,45.4 L37.7,45.4 C40.1,45.4 42.1,43.4 42.1,41 C42.1,38.6 40.1,36.6 37.7,36.6 L32.2,36.6 C28,36.6 24.5,33.2 24.5,28.9 Z M8.3,57.2 C-3.1,43.5 -2.2,23.2 10.5,10.5 C17.1,3.9 25.8,0.3 35.1,0.3 C44.4,0.3 53.1,3.9 59.7,10.5 C66.3,17.1 69.9,25.8 69.9,35.1 C69.9,44.4 66.3,53.1 59.7,59.7 C53,66.4 44.1,69.9 35.1,69.9 C29.4,69.9 23.7,68.5 18.5,65.7 C12,70.3 5.4,69.7 3.5,69.4 C2.2,69.2 1.2,68.2 1,66.9 C0.8,65.6 1.5,64.4 2.6,63.8 C4.8,62.5 6.7,60.3 8.3,57.2 Z M5,66 C8.4,66.2 13.1,65.4 17.2,62.2 L18.1,61.5 L19.1,62.1 C31.4,69.3 47.1,67.3 57.2,57.2 C63.1,51.3 66.4,43.4 66.4,35 C66.4,26.6 63.1,18.7 57.2,12.8 C51.3,6.9 43.4,3.6 35,3.6 C26.6,3.6 18.7,6.9 12.8,12.8 C1.1,24.5 0.5,43.4 11.5,55.8 L12.2,56.6 L11.8,57.6 C10,61.5 7.8,64.3 5,66 Z" id="Shape"></path>
        </g>
    </g>
</svg>