<?xml version="1.0" encoding="UTF-8"?>
<svg width="90px" height="90px" viewBox="0 0 90 90" version="1.1" xmlns="http://www.w3.org/2000/svg" xmlns:xlink="http://www.w3.org/1999/xlink">
    <!-- Generator: Sketch 47.1 (45422) - http://www.bohemiancoding.com/sketch -->
    <title>noun_618171</title>
    <desc>Created with Sketch.</desc>
    <defs></defs>
    <g id="Page-1" stroke="none" stroke-width="1" fill="none" fill-rule="evenodd">
        <g id="noun_618171" fill-rule="nonzero" fill="#525C65">
            <g id="Group">
                <path d="M45,8 C65.4345357,8 82,24.5654643 82,45 C82,65.4345357 65.4345357,82 45,82 C24.5654643,82 8,65.4345357 8,45 C8,24.5654643 24.5654643,8 45,8 L45,8 Z M45,0 C20.1471863,7.99360578e-15 3.55271368e-15,20.1471863 0,45 C-2.66453526e-15,69.8528137 20.1471863,90 45,90 C69.8528137,90 90,69.8528137 90,45 C90,33.065258 85.2589422,21.6193319 76.8198052,13.1801948 C68.3806681,4.74105782 56.934742,4.4408921e-15 45,0 Z" id="Shape"></path>
                <path d="M48.9,54.38 L41.1,54.38 L41.1,50.16 C41.0130252,48.7426322 41.2347994,47.3232779 41.75,46 C42.5214183,44.675222 43.4890613,43.47494 44.62,42.44 L49.62,37.44 C50.6849821,36.2735104 51.2550914,34.7388767 51.21,33.16 C51.2570223,31.5766455 50.657733,30.0423206 49.55,28.91 C48.4214474,27.774437 46.869921,27.1618016 45.27,27.22 C43.6517562,27.1690514 42.07724,27.7500802 40.88,28.84 C39.6951157,29.9781953 38.9812588,31.5201262 38.88,33.16 L30.52,33.16 C30.7879766,29.4399119 32.5128587,25.9757737 35.32,23.52 C38.1984232,21.131548 41.8516199,19.87943 45.59,20 C49.2221399,19.8470731 52.7829583,21.0399473 55.59,23.35 C58.17,25.5833333 59.46,28.7033333 59.46,32.71 C59.5479017,35.2114635 58.7393156,37.6620467 57.18,39.62 C56.5544077,40.437382 55.8868445,41.2217688 55.18,41.97 C54.72,42.43 54.11,43.0166667 53.35,43.73 C52.59,44.4433333 51.9433333,45.0666667 51.41,45.6 C50.8766667,46.1333333 50.45,46.5833333 50.13,46.95 C49.2307521,48.1924807 48.792307,49.7093593 48.89,51.24 L48.9,54.38 Z M50.43,64.6 C50.4340463,66.7971355 49.1136378,68.7801775 47.0849095,69.6237901 C45.0561812,70.4674026 42.7190031,70.0053064 41.1639598,68.453127 C39.6089165,66.9009475 39.142513,64.5646252 39.9823845,62.5343453 C40.8222561,60.5040654 42.8028608,59.1800037 45,59.18 C47.9950053,59.1799949 50.4244843,61.6049998 50.43,64.6 Z" id="Shape"></path>
            </g>
        </g>
    </g>
</svg>