<?xml version="1.0" encoding="UTF-8"?>
<svg width="16px" height="16px" viewBox="0 0 16 16" version="1.1" xmlns="http://www.w3.org/2000/svg" xmlns:xlink="http://www.w3.org/1999/xlink">
    <!-- Generator: Sketch 47.1 (45422) - http://www.bohemiancoding.com/sketch -->
    <title>Shape</title>
    <desc>Created with Sketch.</desc>
    <defs></defs>
    <g id="Page-1" stroke="none" stroke-width="1" fill="none" fill-rule="evenodd">
        <g id="noun_1271709_cc" fill-rule="nonzero" fill="#E82D50">
            <g id="Group">
                <g id="Shape">
                    <path d="M10.1213203,8 L15.0606602,12.9393398 C15.6464466,13.5251263 15.6464466,14.4748737 15.0606602,15.0606602 C14.4748737,15.6464466 13.5251263,15.6464466 12.9393398,15.0606602 L8,10.1213203 L3.0606602,15.0606602 C2.4748737,15.6464466 1.5251263,15.6464466 0.9393398,15.0606602 C0.3535534,14.4748737 0.3535534,13.5251263 0.9393398,12.9393398 L5.8786797,8 L0.9393398,3.0606602 C0.3535534,2.4748737 0.3535534,1.5251263 0.9393398,0.9393398 C1.5251263,0.3535534 2.4748737,0.3535534 3.0606602,0.9393398 L8,5.8786797 L12.9393398,0.9393398 C13.5251263,0.3535534 14.4748737,0.3535534 15.0606602,0.9393398 C15.6464466,1.5251263 15.6464466,2.4748737 15.0606602,3.0606602 L10.1213203,8 L10.1213203,8 Z"></path>
                </g>
            </g>
        </g>
    </g>
</svg>