<?xml version="1.0" encoding="UTF-8"?>
<svg width="50px" height="58px" viewBox="0 0 50 58" version="1.1" xmlns="http://www.w3.org/2000/svg" xmlns:xlink="http://www.w3.org/1999/xlink">
    <!-- Generator: Sketch 47.1 (45422) - http://www.bohemiancoding.com/sketch -->
    <title>noun_570962_cc</title>
    <desc>Created with Sketch.</desc>
    <defs></defs>
    <g id="Page-1" stroke="none" stroke-width="1" fill="none" fill-rule="evenodd">
        <g id="noun_570962_cc" fill-rule="nonzero" fill="#000000">
            <g id="Group">
                <g id="Shape">
                    <g>
                        <path d="M14,21 L11.562,21 C11.252,21 11,21.252 11,21.562 L11,25.438 C11,25.748 11.252,26 11.562,26 L13.127,26 C13.162,25.864 13.216,25.736 13.265,25.605 C13.289,25.542 13.305,25.475 13.332,25.413 C13.428,25.192 13.541,24.982 13.673,24.784 C13.703,24.74 13.74,24.702 13.771,24.659 C13.88,24.509 13.996,24.364 14.125,24.23 C14.184,24.17 14.248,24.116 14.31,24.059 C14.425,23.955 14.542,23.855 14.669,23.763 C14.743,23.71 14.819,23.661 14.897,23.612 C15.026,23.532 15.159,23.46 15.297,23.395 C15.38,23.356 15.461,23.317 15.546,23.283 C15.699,23.223 15.857,23.177 16.019,23.136 C16.097,23.116 16.171,23.091 16.25,23.076 C16.494,23.029 16.743,23 17,23 C17.257,23 17.506,23.029 17.75,23.076 C17.829,23.091 17.903,23.116 17.981,23.136 C18.143,23.177 18.301,23.223 18.454,23.283 C18.539,23.317 18.62,23.356 18.703,23.395 C18.841,23.46 18.974,23.532 19.103,23.612 C19.181,23.661 19.257,23.71 19.331,23.763 C19.458,23.855 19.575,23.955 19.69,24.059 C19.752,24.116 19.816,24.17 19.875,24.23 C20.004,24.364 20.12,24.509 20.229,24.659 C20.26,24.702 20.297,24.74 20.327,24.784 C20.459,24.982 20.572,25.192 20.668,25.413 C20.695,25.475 20.711,25.542 20.735,25.605 C20.784,25.736 20.838,25.864 20.873,26 L29.127,26 C29.162,25.864 29.216,25.736 29.265,25.605 C29.289,25.542 29.305,25.475 29.332,25.413 C29.428,25.192 29.541,24.982 29.673,24.784 C29.703,24.74 29.74,24.702 29.771,24.659 C29.88,24.509 29.996,24.364 30.125,24.23 C30.184,24.17 30.248,24.116 30.31,24.059 C30.425,23.955 30.542,23.855 30.669,23.763 C30.743,23.71 30.819,23.661 30.897,23.612 C31.026,23.532 31.159,23.46 31.297,23.395 C31.38,23.356 31.461,23.317 31.546,23.283 C31.699,23.223 31.857,23.177 32.019,23.136 C32.097,23.116 32.171,23.091 32.25,23.076 C32.494,23.029 32.743,23 33,23 C33.257,23 33.506,23.029 33.75,23.076 C33.829,23.091 33.903,23.116 33.981,23.136 C34.143,23.177 34.301,23.223 34.454,23.283 C34.539,23.317 34.62,23.356 34.703,23.395 C34.841,23.46 34.974,23.532 35.103,23.612 C35.181,23.661 35.257,23.71 35.331,23.763 C35.458,23.855 35.575,23.955 35.69,24.059 C35.752,24.116 35.816,24.17 35.875,24.23 C36.004,24.364 36.12,24.509 36.229,24.659 C36.26,24.702 36.297,24.74 36.327,24.784 C36.459,24.982 36.572,25.192 36.668,25.413 C36.695,25.475 36.711,25.542 36.735,25.605 C36.784,25.736 36.838,25.864 36.873,26 L38.438,26 C38.748,26 39,25.748 39,25.438 L39,21.562 C39,21.252 38.748,21 38.438,21 L36,21 L14,21 Z"></path>
                        <path d="M26,19 L34.057,19 L30.876,14.546 C30.632,14.204 30.234,14 29.813,14 L26,14 L26,19 Z"></path>
                        <path d="M24,14 L20.187,14 C19.766,14 19.368,14.204 19.124,14.546 L15.943,19 L24,19 L24,14 Z"></path>
                        <path d="M17,25 C15.897,25 15,25.897 15,27 C15,28.103 15.897,29 17,29 C18.103,29 19,28.103 19,27 C19,25.897 18.103,25 17,25"></path>
                        <path d="M33,25 C31.897,25 31,25.897 31,27 C31,28.103 31.897,29 33,29 C34.103,29 35,28.103 35,27 C35,25.897 34.103,25 33,25"></path>
                        <path d="M41,21.5615 L41,25.4385 C41,26.8505 39.851,27.9995 38.438,27.9995 L36.858,27.9995 C36.411,29.7205 34.859,30.9995 33,30.9995 C31.141,30.9995 29.589,29.7205 29.142,27.9995 L20.858,27.9995 C20.411,29.7205 18.859,30.9995 17,30.9995 C15.141,30.9995 13.589,29.7205 13.142,27.9995 L11.562,27.9995 C10.149,27.9995 9,26.8505 9,25.4385 L9,21.5615 C9,20.1495 10.149,18.9995 11.562,18.9995 L13.486,18.9995 L17.497,13.3835 C18.116,12.5175 19.121,11.9995 20.187,11.9995 L29.813,11.9995 C30.879,11.9995 31.884,12.5175 32.503,13.3835 L36.514,18.9995 L38.438,18.9995 C39.851,18.9995 41,20.1495 41,21.5615 M40.813,38.5815 L35.835,45.5505 L35.835,45.5505 L35.813,45.5815 C35.797,45.6035 35.771,45.6115 35.754,45.6325 C35.694,45.7035 35.636,45.7775 35.555,45.8325 C35.531,45.8475 35.505,45.8535 35.481,45.8665 C35.454,45.8815 35.427,45.8925 35.398,45.9055 C35.27,45.9615 35.136,45.9995 35.001,45.9995 L35,45.9995 L34.999,45.9995 C34.997,45.9995 34.994,45.9985 34.992,45.9985 C34.902,45.9985 34.814,45.9825 34.728,45.9585 C34.701,45.9505 34.675,45.9385 34.648,45.9285 C34.583,45.9035 34.522,45.8735 34.463,45.8355 C34.449,45.8265 34.433,45.8235 34.419,45.8135 C34.41,45.8065 34.406,45.7965 34.397,45.7895 C34.311,45.7245 34.231,45.6495 34.168,45.5545 L32.168,42.5545 C31.861,42.0945 31.985,41.4745 32.445,41.1675 C32.905,40.8615 33.525,40.9855 33.832,41.4455 L35.029,43.2405 L39.187,37.4185 C39.509,36.9695 40.134,36.8655 40.581,37.1865 C41.03,37.5065 41.135,38.1315 40.813,38.5815 M25,37.9995 L10,37.9995 C9.447,37.9995 9,37.5525 9,36.9995 C9,36.4475 9.447,35.9995 10,35.9995 L25,35.9995 C25.553,35.9995 26,36.4475 26,36.9995 C26,37.5525 25.553,37.9995 25,37.9995 M25,42.9995 L10,42.9995 C9.447,42.9995 9,42.5525 9,41.9995 C9,41.4475 9.447,40.9995 10,40.9995 L25,40.9995 C25.553,40.9995 26,41.4475 26,41.9995 C26,42.5525 25.553,42.9995 25,42.9995 M25,47.9995 L10,47.9995 C9.447,47.9995 9,47.5525 9,46.9995 C9,46.4475 9.447,45.9995 10,45.9995 L25,45.9995 C25.553,45.9995 26,46.4475 26,46.9995 C26,47.5525 25.553,47.9995 25,47.9995 M32,7.9995 L18,7.9995 C16.897,7.9995 16,7.1025 16,5.9995 L6,5.9995 L6,51.9995 L44,51.9995 L44,5.9995 L34,5.9995 C34,7.1025 33.103,7.9995 32,7.9995"></path>
                        <polygon points="18 5 18 6 31.999 6 32 0 18 0"></polygon>
                        <path d="M47,0 L34,0 L34,4 L44,4 C45.103,4 46,4.897 46,6 L46,52 C46,53.103 45.103,54 44,54 L6,54 C4.897,54 4,53.103 4,52 L4,6 C4,4.897 4.897,4 6,4 L16,4 L16,0 L3,0 C1.346,0 0,1.346 0,3 L0,55 C0,56.654 1.346,58 3,58 L47,58 C48.654,58 50,56.654 50,55 L50,3 C50,1.346 48.654,0 47,0"></path>
                    </g>
                </g>
            </g>
        </g>
    </g>
</svg>