<?xml version="1.0" encoding="UTF-8"?>
<svg width="94px" height="94px" viewBox="0 0 94 94" version="1.1" xmlns="http://www.w3.org/2000/svg" xmlns:xlink="http://www.w3.org/1999/xlink">
    <!-- Generator: Sketch 47.1 (45422) - http://www.bohemiancoding.com/sketch -->
    <title>instante-icon</title>
    <desc>Created with Sketch.</desc>
    <defs></defs>
    <g id="Page-1" stroke="none" stroke-width="1" fill="none" fill-rule="evenodd">
        <g id="instante-icon" fill-rule="nonzero" fill="#FFFFFF">
            <path d="M50.88,22.92 L48,40.46 L60.36,41 L60.74,41 C61.7461585,41.1678011 62.615772,41.7968832 63.09,42.7 C63.5515419,43.611575 63.5515419,44.688425 63.09,45.6 L47.61,75.3 C47.076847,76.3524079 45.8555397,76.8583517 44.7343472,76.4912798 C43.6131546,76.1242078 42.9275315,74.993946 43.12,73.83 L46,56.26 L33.63,55.69 L33.25,55.69 C32.2475526,55.5192998 31.382174,54.890606 30.91,53.99 C30.4500638,53.0780423 30.4500638,52.0019577 30.91,51.09 L46.37,21.44 C46.9221978,20.4091851 48.1347211,19.9235386 49.2458261,20.2881584 C50.356931,20.6527782 51.0459414,21.7624313 50.88,22.92 L50.88,22.92 Z M47,0.84 C44.3683632,0.84 42.235,2.97336317 42.235,5.605 C42.235,8.23663683 44.3683632,10.37 47,10.37 C67.224957,10.3865342 83.6179452,26.7750483 83.64,47 C83.64,49.6316368 85.7733632,51.765 88.405,51.765 C91.0366368,51.765 93.17,49.6316368 93.17,47 C93.1424333,21.5140594 72.4859459,0.862046079 47,0.84 Z M42.17,88.39 C42.167345,89.6524313 42.6662992,90.8642112 43.5570976,91.7587603 C44.447896,92.6533094 45.6575686,93.1573506 46.92,93.16 L46.92,93.16 C49.5475724,93.1599942 51.6781522,91.0308981 51.6799883,88.4033263 C51.6818245,85.7757546 49.5542225,83.6436828 46.9266527,83.6400047 C44.2990829,83.6363265 42.1655201,85.7624334 42.16,88.39 L42.17,88.39 Z M5.6,51.73 C7.52796207,51.7299617 9.26549861,50.5669521 10.0004638,48.7845762 C10.7354289,47.0022002 10.3226547,44.9525071 8.95507684,43.5935485 C7.58749901,42.2345898 5.53523712,41.8347828 3.75754353,42.5810021 C1.97984994,43.3272214 0.827848979,45.0720762 0.84,47 C0.856494983,49.6171521 2.98279589,51.730052 5.6,51.73 Z M23.86,86.95 C26.1341203,88.2672729 29.0454938,87.4922646 30.3637335,85.2187045 C31.6819732,82.9451444 30.9082027,80.0334417 28.6352033,78.7142355 C26.3622039,77.3950293 23.4501725,78.1675617 22.13,80.44 C20.8200284,82.7167402 21.5925992,85.6239287 23.86,86.95 Z M22.19,13.53 C23.5166289,15.7945443 26.4259059,16.55801 28.693553,15.2366919 C30.9612002,13.9153739 31.7314819,11.0078941 30.415482,8.73715656 C29.099482,6.466419 26.1938155,5.68932537 23.92,7 C22.8191764,7.63142879 22.0167986,8.67710605 21.6917973,9.90384522 C21.3667959,11.1305844 21.5461992,12.436366 22.19,13.53 L22.19,13.53 Z M8.75,63.53 C7.07721866,64.4924289 6.14918765,66.3679947 6.3988748,68.2816621 C6.64856196,70.1953296 8.02676346,71.7699879 9.89048686,72.2709889 C11.7542103,72.7719898 13.7361868,72.1006051 14.911736,70.5700657 C16.0872852,69.0395263 16.2247512,66.9514431 15.26,65.28 C13.9409346,63.004262 11.0285763,62.2258437 8.75,63.54 L8.75,63.53 Z M82.8,72.53 C85.1883766,72.5406507 87.2148565,70.7797105 87.5375745,68.4132133 C87.8602925,66.0467161 86.3793165,63.8074659 84.0752979,63.1782171 C81.7712792,62.5489683 79.3576749,63.7245726 78.4326906,65.9265853 C77.5077063,68.1285981 78.3577705,70.6751491 80.42,71.88 C81.139532,72.3100571 81.9617449,72.5380657 82.8,72.54 L82.8,72.53 Z M13.54,22.16 C11.2639008,20.8470986 8.35448064,21.6268531 7.04003085,23.9020585 C5.72558106,26.1772639 6.50335572,29.0872139 8.77766621,30.4032114 C11.0519767,31.719209 13.9624552,30.9434145 15.28,28.67 C15.913856,27.5762857 16.0866271,26.2753581 15.7602116,25.0541139 C15.4337961,23.8328698 14.6350058,22.7916221 13.54,22.16 L13.54,22.16 Z M63.54,85.27 C64.3891213,86.7489899 65.9645916,87.6607028 67.67,87.66 C68.4909839,87.6473003 69.294317,87.4197468 70,87 C71.6685075,86.0394104 72.5940655,84.1683115 72.3450781,82.2592136 C72.0960908,80.3501157 70.7215932,78.7789935 68.8625259,78.2784753 C67.0034586,77.7779572 65.0259434,78.4466145 63.8521135,79.9726462 C62.6782835,81.4986779 62.539311,83.5815498 63.5,85.25 L63.54,85.27 Z" id="Shape"></path>
        </g>
    </g>
</svg>