<?xml version="1.0" encoding="UTF-8"?>
<svg width="86px" height="64px" viewBox="0 0 86 64" version="1.1" xmlns="http://www.w3.org/2000/svg" xmlns:xlink="http://www.w3.org/1999/xlink">
    <!-- Generator: Sketch 47.1 (45422) - http://www.bohemiancoding.com/sketch -->
    <title>Page 1 Copy</title>
    <desc>Created with Sketch.</desc>
    <defs>
        <polygon id="path-1" points="0.000272727273 0 10.9169188 0 10.9169188 31.9199037 0.000272727273 31.9199037 0.000272727273 0"></polygon>
    </defs>
    <g id="Look-&amp;-Feel" stroke="none" stroke-width="1" fill="none" fill-rule="evenodd">
        <g id="Mensaje-de-validacion" transform="translate(-81.000000, -60.000000)">
            <g id="Page-1-Copy" transform="translate(81.000000, 60.000000)">
                <path d="M49.4675417,16.0095435 C49.4675417,18.5311207 49.4689639,21.052698 49.4654972,23.5742752 C49.4650528,23.8467878 49.4710971,24.0745267 49.8533124,24.0458504 C51.1337334,23.9498816 52.4321985,23.9668587 53.692531,23.7568885 C56.4771022,23.2927902 58.3299571,21.717882 58.9901228,18.9424406 C59.4360702,17.0674871 59.4382924,15.171774 59.0374997,13.283186 C58.4892431,10.6995942 56.9314939,9.06460652 54.341408,8.39150567 C52.9249006,8.02346412 51.4838603,7.96892641 50.0309091,7.9638245 C49.578473,7.96224115 49.4540308,8.08934919 49.4575863,8.53295185 C49.4777637,11.0249731 49.4673639,13.5173463 49.4675417,16.0095435 L49.4675417,16.0095435 Z M52.6886382,0 C53.2417837,0.0651813548 53.7944846,0.134145163 54.3480745,0.19501628 C58.5685306,0.658938635 62.3478391,2.11579909 65.4325826,5.08511328 C67.7624066,7.32775652 69.1995359,10.0510353 69.7447703,13.2260974 C70.3877808,16.9705507 69.8387242,20.5209553 67.8367164,23.7835416 C65.6852002,27.2897004 62.4928143,29.5134313 58.6244406,30.8454708 C56.886428,31.4438022 55.0977497,31.855298 53.2566278,31.8975207 C50.2232612,31.9669244 47.1882945,31.9670123 44.154039,31.9875959 C42.6138005,31.9980636 41.0732065,31.9736096 39.5335013,31.999735 C39.1089758,32.006948 39.0243551,31.8677889 39.0247107,31.4775804 C39.034666,21.1889543 39.0327994,10.9003281 39.0311994,0.611701945 C39.0311994,0.407801297 39.0108442,0.203900648 39,0 L52.6886382,0 Z" id="Fill-1" fill="#FFFFFF"></path>
                <path d="M86,0 C86,10.4493223 86,20.8985566 85.9998167,31.347879 C85.9998167,31.9965844 85.9989917,31.9966724 85.338075,31.9966724 C82.146975,31.9966724 78.9557833,31.9991359 75.7645917,31.9950007 C74.9443583,31.9939449 75.0230083,32.107972 75.0229167,31.3025672 C75.021175,21.0877221 75.0218167,10.8729649 75.0208083,0.658119724 C75.0208083,0.438775811 75.0072417,0.219431897 75,0 L86,0 Z" id="Fill-3" fill="#FFFFFF"></path>
                <path d="M27.7491527,52.8910657 C27.7801248,52.8953453 27.8110129,52.899625 27.841985,52.9039047 C27.841985,53.1667329 27.8272964,53.4307706 27.844587,53.6922033 C27.9117352,54.7037895 28.0718835,55.6901628 28.5851471,56.5592171 C29.2690509,57.7170568 30.4123319,57.8379112 31.2734229,56.8334888 C31.4520369,56.6249939 31.6400517,56.3724928 31.7027513,56.1054779 C31.9188004,55.1841371 32.1522241,54.2561907 32.2461476,53.3144749 C32.3609709,52.1633339 32.1596944,51.0291255 31.7009047,49.9765102 C31.3449356,49.1597424 30.783829,48.5794736 29.9265151,48.5758451 C29.0753285,48.5722167 28.6134332,49.2256123 28.2750905,50.0006066 C28.1966111,50.1803532 28.1228321,50.3715433 28.0916922,50.5663618 C27.9678038,51.3393093 27.8617937,52.1157922 27.7491527,52.8910657 L27.7491527,52.8910657 Z M28.9317993,64 C28.3032088,63.8024834 27.6759612,63.5995708 27.0454402,63.4101484 C26.7817159,63.3309743 26.6951787,63.1721609 26.7279134,62.8677454 C26.7733224,62.4451734 26.7743296,62.0168332 26.7942222,61.5933309 C27.4831621,61.8375518 28.10487,62.1191734 28.7514226,62.2721255 C29.6064703,62.474573 30.4505224,62.3924217 31.1975455,61.7989417 C31.6805924,61.415259 32.0184315,60.9308178 32.1458451,60.269328 C32.3359582,59.2818382 32.3668464,58.2890454 32.324627,57.180422 C32.1993957,57.3589592 32.1268757,57.4446458 32.0723178,57.5426133 C30.8320917,59.7717686 27.9140014,59.533409 26.824271,57.1537206 C26.0743102,55.5161845 25.9120635,53.7581662 26.0391414,51.9536295 C26.1125847,50.9109691 26.3093287,49.9015227 26.7619072,48.9713434 C27.492395,47.4698268 28.8006926,46.7704712 30.3053145,47.0667926 C30.9576587,47.195369 31.4620252,47.5837035 31.8717128,48.1435974 C32.0005533,48.3197156 32.1288902,48.496485 32.3268932,48.7682447 L32.3268932,47.2881265 L33.9760516,47.2881265 C33.9831021,47.4644307 33.9966157,47.6439912 33.9966996,47.8233656 C33.9978747,51.1563064 34.0061003,54.4891542 33.991076,57.8218159 C33.9874667,58.6254655 33.9552356,59.4367441 33.8496452,60.2303457 C33.5819759,62.2418886 32.4762978,63.4391758 30.5448655,63.8996136 C30.4525368,63.9216632 30.3646567,63.9660417 30.2747621,64 L28.9317993,64 Z" id="Fill-5" fill="#FFFFFF"></path>
                <path d="M0,48.5138953 C0.0393000066,48.3453617 0.0809164769,48.1776038 0.117420751,48.0081974 C0.469523249,46.3756128 1.62144478,45.2239017 3.14639687,45.0453802 C4.1060519,44.9330891 5.05819841,45.0210408 5.98382539,45.4008717 C6.20508762,45.4917325 6.30741142,45.6065448 6.29526995,45.908412 C6.27410227,46.4346675 6.28935898,46.9631532 6.28935898,47.4981359 C5.78876316,47.3004144 5.33481613,47.0756383 4.86297642,46.9494805 C4.49266173,46.8505712 4.09814398,46.8272984 3.7179244,46.8518318 C2.84797243,46.9079774 2.15774609,47.5571906 1.9166741,48.4816043 C1.6486832,49.509194 1.87545702,50.4928563 2.59691568,51.1649544 C3.10190479,51.6352582 3.66608354,52.0109195 4.18001899,52.4683263 C4.80993739,53.0289091 5.49153689,53.5445949 6.01513759,54.2319172 C7.17057376,55.748429 7.22417194,57.5686503 6.61574074,59.3894534 C6.02743881,61.1502322 4.8051447,61.8821607 3.29441092,61.9856276 C2.29929002,62.0537004 1.33452278,61.8801244 0.396594578,61.4614085 C0.161034173,61.3562932 0.0677365967,61.2129717 0.0795585499,60.9018924 C0.100806114,60.3383035 0.0855494045,59.7727753 0.0855494045,59.1168711 C0.273422607,59.2349804 0.418401289,59.3276836 0.564578143,59.4174777 C1.48285635,59.9820362 2.42973089,60.3858188 3.4772518,60.0670788 C5.16243928,59.5543022 5.74978267,57.0317281 4.51830258,55.5401377 C4.16412326,55.1109491 3.73246221,54.7723303 3.3221286,54.416257 C2.98712001,54.1255413 2.631423,53.8697348 2.28411319,53.5999646 C1.18331361,52.7448844 0.237397601,51.7427008 0,50.0654131 L0,48.5138953 Z" id="Fill-7" fill="#FFFFFF"></path>
                <path d="M86,55.4673133 C85.7777065,56.2617545 85.387889,56.9674581 84.5473449,57.4155118 C83.2440875,58.1101337 81.8401596,58.1108893 80.4140121,57.8045471 C78.904931,57.480407 78.9091215,57.4658833 79.0702136,56.1359939 C79.0829802,56.0302979 79.0970136,55.9246018 79.1166994,55.7698776 C79.4569126,55.9269525 79.7471318,56.0725259 80.0486557,56.1978668 C80.8282907,56.5221747 81.638429,56.666237 82.5019723,56.4910284 C83.1537472,56.3588874 83.6265959,56.0453253 83.8075687,55.4829285 C83.9994564,54.8866148 83.9595976,54.2840048 83.3939723,53.8530773 C82.9260938,53.4966156 82.3645616,53.2299829 81.8366512,52.9337989 C81.3214099,52.6447509 80.7719621,52.3968396 80.2802073,52.0814306 C79.1097801,51.3306446 78.8571783,50.2851858 79.1550964,49.1237049 C79.4556457,47.9518139 80.4182027,47.3354356 81.7163925,47.0905466 C82.9105986,46.8653024 84.0699159,47.0928973 85.2029206,47.415778 C85.3010572,47.4437342 85.403969,47.6198662 85.4000708,47.7243869 C85.3861348,48.0999058 85.3272724,48.4742494 85.2841001,48.8608501 C84.6384648,48.7256868 84.0108586,48.5688637 83.3710705,48.4708913 C83.0451831,48.4210236 82.6932753,48.4512465 82.3604686,48.4907041 C81.7672637,48.561308 81.3211175,48.8426324 81.1509622,49.3428206 C80.9687225,49.8784366 81.0087762,50.4242109 81.5375637,50.8108116 C81.9534991,51.114887 82.4370677,51.3532278 82.9054335,51.5997959 C83.278099,51.7959926 83.6782467,51.9528995 84.0572468,52.140533 C85.0755477,52.644667 85.7604571,53.3676647 86,54.3759326 L86,55.4673133 Z" id="Fill-9" fill="#FFFFFF"></path>
                <path d="M72.7508141,52.5632301 C72.7480847,51.3895431 72.5054537,50.3535606 72.0729292,49.6253932 C71.6252951,48.8718901 70.9756798,48.3839481 69.940331,48.390766 C68.8892877,48.3975839 68.1850828,48.8755937 67.7999343,49.6735393 C66.8693778,51.6015711 66.8663559,53.5431545 67.8631021,55.455867 C68.2564392,56.2106327 68.9947625,56.6057336 69.9524187,56.618696 C70.9062731,56.63149 71.5805512,56.2038989 72.0067394,55.4864213 C72.55088,54.570299 72.756663,53.5856611 72.7508141,52.5632301 M75,52.5250163 C74.7843714,53.4379401 74.674315,54.3816707 74.3309859,55.2573907 C73.6173253,57.0774305 71.9824666,58.0193935 69.8239383,57.9996974 C67.8108522,57.981348 66.1873012,56.960853 65.5101962,55.18635 C64.8151546,53.3645426 64.8277297,51.5152111 65.563421,49.7013158 C66.2261963,48.06679 67.8441908,47.0381304 69.6759617,47.0015158 C71.8376094,46.9581675 73.4344504,47.8455032 74.2664533,49.5437468 C74.7305617,50.4908443 74.8568,51.4865086 74.8648909,52.5011958 C74.9099273,52.5091079 74.9549636,52.51702 75,52.5250163" id="Fill-11" fill="#FFFFFF"></path>
                <path d="M49,47 L49,57.7168549 L47.5471753,57.7168549 C47.5209911,57.2616654 47.4957591,56.8233252 47.465687,56.3000507 C47.3526983,56.4609789 47.2759708,56.5645678 47.2047974,56.6723691 C46.4727515,57.7816732 45.2755001,58.2319627 43.9755751,57.885606 C42.98502,57.6216047 42.2136978,56.5979226 42.0992016,55.2761966 C42.0192209,54.352149 42.013746,53.418903 42.0070016,52.4894395 C41.9939095,50.6728938 42.003193,48.8560901 42.003193,47.0067053 L43.6543826,47.0067053 C43.6543826,47.1685792 43.6540652,47.3344074 43.654462,47.5002357 C43.6593814,49.5333296 43.6599368,51.5664235 43.6730289,53.5995174 C43.675806,54.0276277 43.7085759,54.4575432 43.7560248,54.8829885 C43.8479868,55.709121 44.3112879,56.2606783 45.002312,56.4017484 C45.7354687,56.551501 46.4429968,56.1830511 46.8125109,55.4796779 C47.2713687,54.6059204 47.2782718,53.6395775 47.2904117,52.6839804 C47.3122319,50.9660375 47.2966801,49.2474929 47.2967594,47.5291202 L47.2967594,47 L49,47 Z" id="Fill-13" fill="#FFFFFF"></path>
                <path d="M18.2093534,51.6097671 C18.1597602,50.7948199 18.1213794,50.0147426 17.7250651,49.3063376 C17.0201519,48.0462321 15.4223887,47.9759882 14.5912069,49.1645054 C14.0807852,49.8946725 13.9307981,50.7240718 13.8679226,51.6097671 L18.2093534,51.6097671 Z M19.9125991,52.9375958 L13.8464466,52.9375958 C13.9313156,54.2484517 14.1548731,55.493853 15.3537345,56.2239361 C16.7215577,57.0570325 17.9970083,56.4535733 19.2946248,55.6939978 C19.3153246,56.2556131 19.3436143,56.7617727 19.3416305,57.2678483 C19.3413718,57.3379241 19.2031146,57.4342995 19.1090169,57.4732025 C17.9305103,57.9600366 16.7104316,58.1407719 15.4465384,57.8822306 C13.9090634,57.5677293 12.9380719,56.6061605 12.4668072,55.1981731 C11.8297719,53.2951172 11.8305482,51.3642494 12.5567649,49.4812752 C13.3027327,47.5474666 15.2379021,46.6100127 17.2060185,47.1520504 C18.0065819,47.372613 18.6049776,47.8533974 19.0413977,48.5239076 C19.8670596,49.7924155 20.0512875,51.2069568 19.9888432,52.6709881 C19.9854795,52.7503067 19.9449425,52.8281127 19.9125991,52.9375958 L19.9125991,52.9375958 Z" id="Fill-15" fill="#FFFFFF"></path>
                <path d="M56.5414875,58 L55,58 L55,47.1807005 L56.3511876,47.1807005 L56.3511876,48.8015404 C56.7095059,48.3126785 57.0112133,47.7678897 57.4183768,47.3819506 C57.8560231,46.9671377 58.4262697,46.9607213 59,47.0385854 L59,48.8431604 C58.8512874,48.8283333 58.7001071,48.8179283 58.5498703,48.7974651 C57.9598098,48.7170864 57.5226716,49.0166639 57.180393,49.567609 C56.7113204,50.3228391 56.5785749,51.1979869 56.568414,52.1041763 C56.5483098,53.8807445 56.5491808,55.6575728 56.5415601,57.4344879 C56.5408343,57.6053901 56.5414875,57.7764658 56.5414875,58" id="Fill-17" fill="#FFFFFF"></path>
                <path d="M18,11.000364 C17.6666422,11.000182 17.3332843,11.000091 17,11 L17,22 C17.3332843,21.999909 17.6666422,21.999818 18,21.999636 L18,11.000364 Z" id="Fill-19" fill="#FFFFFF"></path>
                <path d="M13,11 C12.6666422,11.0010019 12.3332843,11.0023681 12,11.0040076 L12,21.995537 C12.3332843,21.9972676 12.6666422,21.998907 13,22 L13,11 Z" id="Fill-21" fill="#FFFFFF"></path>
                <path d="M15,11 C14.6666422,11.000182 14.3333578,11.0006371 14,11.0011832 L14,21.9987257 C14.3333578,21.9993629 14.6666422,21.999818 15,22 L15,11 Z" id="Fill-23" fill="#FFFFFF"></path>
                <g id="Group-27" transform="translate(21.000000, 0.000000)">
                    <mask id="mask-2" fill="white">
                        <use xlink:href="#path-1"></use>
                    </mask>
                    <g id="Clip-26"></g>
                    <path d="M10.911,31.4701275 C10.8941818,31.3254242 10.9089091,31.1774681 10.9089091,31.0309187 C10.909,20.6872703 10.909,10.3437099 10.9090909,-2.63736264e-05 L0.000272727273,-2.63736264e-05 L0.000272727273,22.217644 C0.000636363636,23.8813802 0.000818181818,25.5451165 0.000272727273,27.2088527 L0.000272727273,31.5348308 C0.0184545455,31.7812484 0.106181818,31.9217319 0.477909091,31.9198857 C3.79581818,31.9042374 7.11381818,31.9079297 10.4317273,31.9156659 C10.7718182,31.9164571 10.9527273,31.8294242 10.911,31.4701275" id="Fill-25" fill="#FFFFFF" mask="url(#mask-2)"></path>
                </g>
                <path d="M11,0 L0,0 C0.0101274852,0.204642184 0.0291051152,0.409284368 0.0291051152,0.61383842 C0.0305649329,10.8953015 0.0330283752,21.1766764 0.0209848793,31.4579632 C0.0205286862,31.8854908 0.146164246,32.0020012 0.583105928,31.9999741 C3.88256762,31.983846 7.18221179,31.9852561 10.4817647,31.9990047 C10.8049319,32.0003266 10.9520085,31.9320245 11,31.7066713 L11,0 Z" id="Fill-28" fill="#FFFFFF"></path>
                <path d="M19,11.0003641 C18.6666422,11.0002731 18.3332843,11.000182 18,11 L18,22 C18.3332843,21.999818 18.6666422,21.9996359 19,21.9995449 L19,11.0003641 Z" id="Fill-30" fill="#FFFFFF"></path>
            </g>
        </g>
    </g>
</svg>