<?xml version="1.0" encoding="UTF-8"?>
<svg width="62px" height="28px" viewBox="0 0 62 28" version="1.1" xmlns="http://www.w3.org/2000/svg" xmlns:xlink="http://www.w3.org/1999/xlink">
    <!-- Generator: Sketch 47.1 (45422) - http://www.bohemiancoding.com/sketch -->
    <title>Group 2</title>
    <desc>Created with Sketch.</desc>
    <defs></defs>
    <g id="Page-1" stroke="none" stroke-width="1" fill="none" fill-rule="evenodd">
        <g id="Group-2" fill-rule="nonzero" fill="#FFFFFF">
            <g id="noun_781774_cc">
                <g id="Group">
                    <g transform="translate(0.000000, 5.000000)" id="Shape">
                        <path d="M18.4,3.1 L7.4,3.1 C6.8,3.1 6.3,2.6 6.3,2 C6.3,1.4 6.8,0.9 7.4,0.9 L18.4,0.9 C19,0.9 19.5,1.4 19.5,2 C19.5,2.6 19,3.1 18.4,3.1 Z"></path>
                        <path d="M15.2,17.1 L8,17.1 C7.4,17.1 6.9,16.6 6.9,16 C6.9,15.4 7.4,14.9 8,14.9 L15.2,14.9 C15.8,14.9 16.3,15.4 16.3,16 C16.3,16.6 15.8,17.1 15.2,17.1 Z"></path>
                        <path d="M11.9,10.1 L1.6,10.1 C1,10.1 0.5,9.6 0.5,9 C0.5,8.4 1,7.9 1.6,7.9 L11.9,7.9 C12.5,7.9 13,8.4 13,9 C13,9.6 12.5,10.1 11.9,10.1 Z"></path>
                    </g>
                    <path d="M53.6,9.9 C53.6,9.9 53.6,9.9 53.6,9.9 L53.8,9.7 C53.9,9.6 54.1,9.5 54.2,9.3 C54.3,9.2 54.4,9.1 54.5,9 L55.4,8.1 C55.7,7.9 55.7,7.5 55.7,7.2 C55.7,7.1 55.6,7 55.5,6.8 C55.2,6.5 54.7,6.4 54.4,6.6 C54.3,6.6 54.3,6.7 54.2,6.7 L53.4,7.4 C51,9.5 48.7,11.7 46.3,13.8 C45.8,14.3 45.2,14.8 44.7,15.2 C43.8,15.9 42.8,16.3 41.9,16.2 C40.9,16.2 39.9,15.9 39.1,15.2 C38.5,14.7 38,14.2 37.5,13.8 C35.1,11.7 32.8,9.5 30.4,7.4 L29.6,6.7 C29.5,6.7 29.5,6.6 29.4,6.6 C29,6.4 28.6,6.5 28.3,6.8 C28.2,6.9 28.1,7 28.1,7.2 C28,7.5 28.1,7.9 28.4,8.1 L29.3,9 C29.4,9.1 29.5,9.2 29.6,9.3 C29.7,9.4 29.9,9.5 30,9.7 L30.1,9.8 C30.1,9.8 30.1,9.8 30.2,9.9 C31.4,10.9 32.5,12 33.7,13 C34.1,13.4 34.6,13.8 35,14.2 C34.9,14.3 34.9,14.3 34.8,14.4 C32.9,16.2 31.1,18 29.2,19.9 C29.1,20 29,20.1 29,20.1 C28.8,20.4 28.8,20.8 29,21.1 C29.2,21.4 29.6,21.6 29.9,21.4 C30.1,21.3 30.2,21.2 30.4,21.1 C32.2,19.3 34.1,17.5 35.9,15.7 C36,15.6 36.1,15.5 36.2,15.4 C36.7,15.9 37.2,16.3 37.7,16.7 C38.7,17.6 39.8,18.1 41.1,18.3 C41.3,18.3 41.6,18.3 41.8,18.3 C42,18.3 42.3,18.3 42.5,18.3 C43.8,18.2 45,17.6 45.9,16.7 C46.4,16.3 46.9,15.8 47.4,15.4 C47.5,15.5 47.6,15.6 47.7,15.7 C49.5,17.5 51.4,19.3 53.2,21.1 C53.3,21.2 53.5,21.4 53.7,21.4 C54.1,21.5 54.4,21.4 54.6,21.1 C54.8,20.8 54.8,20.4 54.6,20.1 C54.5,20 54.5,19.9 54.4,19.9 C52.5,18.1 50.7,16.3 48.8,14.4 C48.8,14.4 48.7,14.3 48.6,14.2 C49,13.8 49.5,13.4 49.9,13 C51.2,12 52.4,10.9 53.6,9.9 Z" id="Shape"></path>
                    <path d="M53.5,27.9 L22.2,27.9 L22.2,8.1 C22.2,3.7 25.8,0.1 30.2,0.1 L61.4,0.1 L61.4,19.8 C61.5,24.3 57.9,27.9 53.5,27.9 Z M24.6,25.5 L53.4,25.5 C56.5,25.5 59,23 59,19.9 L59,2.5 L30.3,2.5 C27.2,2.5 24.7,5 24.7,8.1 L24.7,25.5 L24.6,25.5 Z" id="Shape"></path>
                </g>
            </g>
        </g>
    </g>
</svg>