<?xml version="1.0" encoding="UTF-8"?>
<svg width="56px" height="56px" viewBox="0 0 56 56" version="1.1" xmlns="http://www.w3.org/2000/svg" xmlns:xlink="http://www.w3.org/1999/xlink">
    <!-- Generator: Sketch 47.1 (45422) - http://www.bohemiancoding.com/sketch -->
    <title>Group 2</title>
    <desc>Created with Sketch.</desc>
    <defs></defs>
    <g id="Page-1" stroke="none" stroke-width="1" fill="none" fill-rule="evenodd">
        <g id="Group-2" transform="translate(1.000000, 1.000000)" fill-rule="nonzero" fill="#009C33">
            <g id="noun_184423_cc" stroke-width="2" stroke="#009C33">
                <g id="Group">
                    <g id="Shape">
                        <path d="M27,54 C12.112,54 0,41.888 0,27 C0,12.112 12.112,0 27,0 C41.888,0 54,12.112 54,27 C54,41.888 41.888,54 27,54 L27,54 Z M2,27 C2,40.785 13.215,52 27,52 C40.785,52 52,40.785 52,27 C52,13.215 40.785,2 27,2 C13.215,2 2,13.215 2,27 Z"></path>
                    </g>
                </g>
            </g>
            <g id="noun_1256606_cc" transform="translate(2.000000, 2.000000)">
                <path d="M25,50 C38.8071187,50 50,38.8071187 50,25 C50,11.1928813 38.8071187,4.16985174e-15 25,0 C11.1928813,-4.16985174e-15 1.5636944e-15,11.1928813 0,25 C0.0161692207,38.8004157 11.1995843,49.9838308 25,50 L25,50 Z M11.9248826,23.0751174 C12.6122478,22.3886071 13.7257804,22.3886071 14.4131455,23.0751174 L21.9600939,30.6220657 L36.1502347,17.0598592 C36.8578249,16.4194936 37.9467837,16.4594822 38.6055005,17.1500211 C39.2642173,17.84056 39.2528241,18.9301933 38.5798122,19.6068075 L23.1455399,34.3544601 C22.4616778,35.0216603 21.3704818,35.0216603 20.6866197,34.3544601 L11.9248826,25.5868545 C11.5879547,25.2558346 11.3981659,24.8033148 11.3981659,24.3309859 C11.3981659,23.858657 11.5879547,23.4061372 11.9248826,23.0751174 Z" id="Shape"></path>
            </g>
        </g>
    </g>
</svg>