<?xml version="1.0" encoding="UTF-8"?>
<svg width="88px" height="98px" viewBox="0 0 88 98" version="1.1" xmlns="http://www.w3.org/2000/svg" xmlns:xlink="http://www.w3.org/1999/xlink">
    <!-- Generator: Sketch 47.1 (45422) - http://www.bohemiancoding.com/sketch -->
    <title>rapido-icon</title>
    <desc>Created with Sketch.</desc>
    <defs></defs>
    <g id="Page-1" stroke="none" stroke-width="1" fill="none" fill-rule="evenodd">
        <g id="rapido-icon" fill-rule="nonzero" fill="#FFFFFF">
            <path d="M82.34,30.19 L79.56,33 C88.4273908,44.8165443 90.1202245,60.5371694 83.9718157,73.9706502 C77.8234068,87.4041309 64.8189628,96.3979162 50.08,97.41 C49.16,97.47 48.2466667,97.5 47.34,97.5 C35.9279707,97.5249029 25.0445391,92.6922665 17.41,84.21 C16.52337,83.181172 16.6203151,81.632672 17.6283404,80.7224605 C18.6363656,79.8122491 20.186695,79.8733179 21.12,80.86 C34.0428799,95.1656811 56.0497434,96.4663533 70.5677856,83.7825138 C85.0858279,71.0986743 86.75131,49.1164097 74.31,34.39 C73.4653727,33.3964342 73.5263241,31.9205386 74.45,31 L78.81,26.64 C79.4424743,25.940558 79.4155294,24.8680694 78.74873,24.20127 C78.0819306,23.5344706 77.009442,23.5075257 76.31,24.14 L71.78,28.67 C70.8993759,29.5503078 69.5051795,29.6483705 68.51,28.9 C63.4928881,25.1372475 57.5618392,22.7827798 51.33,22.08 C50.0632953,21.942394 49.1027409,20.8741541 49.1,19.6 L49.1,11.54 C49.0892795,10.8700555 49.3479313,10.2238462 49.8179392,9.74631815 C50.2879472,9.26879009 50.9299698,8.99991423 51.6,9 L53.89,9 C54.867544,9 55.66,8.20754401 55.66,7.23 C55.66,6.25245599 54.867544,5.46 53.89,5.46 L40.77,5.46 C39.792456,5.46 39,6.25245599 39,7.23 C39,8.20754401 39.792456,9 40.77,9 L43.06,9 C44.4407119,9 45.56,10.1192881 45.56,11.5 L45.56,19.6 C45.5578291,20.8707347 44.6027416,21.9376794 43.34,22.08 C35.258106,23.0053936 27.7424332,26.6890622 22.06,32.51 C21.4329989,33.1495054 20.5124539,33.4059317 19.6451254,33.1826855 C18.7777969,32.9594393 18.0954528,32.2904371 17.8551254,31.4276855 C17.614798,30.5649339 17.8529989,29.6395054 18.48,29 C24.4368468,22.9128943 32.1646466,18.8634992 40.56,17.43 L40.56,14 C37.0331985,13.678696 34.3499642,10.6936017 34.4050461,7.15262294 C34.4601279,3.61164413 37.2349112,0.711452409 40.77,0.5 L53.89,0.5 C57.4250888,0.711452409 60.1998721,3.61164413 60.2549539,7.15262294 C60.3100358,10.6936017 57.6268015,13.678696 54.1,14 L54.1,17.39 C59.6892523,18.3359684 65.0155704,20.4521831 69.73,23.6 L72.73,20.6 C75.3726825,17.954556 79.659556,17.9523175 82.305,20.595 C84.950444,23.2376825 84.9526825,27.524556 82.31,30.17 L82.34,30.19 Z M0.34,44.37 C0.34,45.7507119 1.45928813,46.87 2.84,46.87 L20.2,46.87 C21.5807119,46.87 22.7,45.7507119 22.7,44.37 C22.7,42.9892881 21.5807119,41.87 20.2,41.87 L2.85,41.87 C1.47318396,41.869989 0.355507264,42.983195 0.35,44.36 L0.34,44.37 Z M28.76,56.49 C28.76,55.1092881 27.6407119,53.99 26.26,53.99 L8.91,53.99 C7.52928813,53.99 6.41,55.1092881 6.41,56.49 C6.41,57.8707119 7.52928813,58.99 8.91,58.99 L26.26,58.99 C26.9230412,58.99 27.558926,58.7266079 28.027767,58.257767 C28.4966079,57.788926 28.76,57.1530412 28.76,56.49 L28.76,56.49 Z M2.85,71.12 L20.2,71.12 C21.5807119,71.12 22.7,70.0007119 22.7,68.62 C22.7,67.2392881 21.5807119,66.12 20.2,66.12 L2.85,66.12 C1.46928813,66.12 0.35,67.2392881 0.35,68.62 C0.35,70.0007119 1.46928813,71.12 2.85,71.12 Z M61.2,46.84 L54.79,53.25 C56.7365226,56.9468198 55.6891574,61.5112315 52.3256564,63.9895955 C48.9621554,66.4679595 44.2923494,66.1161914 41.338079,63.161921 C38.3838086,60.2076506 38.0320405,55.5378446 40.5104045,52.1743436 C42.9887685,48.8108426 47.5531802,47.7634774 51.25,49.71 L57.66,43.3 C58.2923601,42.6676399 59.214045,42.4206752 60.077865,42.652135 C60.9416849,42.8835949 61.6164051,43.5583151 61.847865,44.422135 C62.0793248,45.285955 61.8323601,46.2076399 61.2,46.84 L61.2,46.84 Z M50.76,57.18 C50.76,55.2856633 49.2243367,53.75 47.33,53.75 C45.4356633,53.75 43.9,55.2856633 43.9,57.18 C43.9,59.0743367 45.4356633,60.61 47.33,60.61 C49.2220571,60.6045078 50.7545078,59.0720571 50.76,57.18 L50.76,57.18 Z M47.33,86.93 C60.8059537,86.9512636 72.6144008,77.9144546 76.1152161,64.9011509 C79.6160314,51.8878472 73.9354134,38.1461618 62.2676869,31.4033183 C50.5999603,24.6604748 35.857383,26.599483 26.33,36.13 C25.352456,37.107544 25.352456,38.692456 26.33,39.67 C27.307544,40.647544 28.892456,40.647544 29.87,39.67 C36.9508223,32.5770161 47.6081738,30.4500065 56.8693069,34.2814394 C66.1304401,38.1128723 72.170057,47.1476019 72.170057,57.17 C72.170057,67.1923981 66.1304401,76.2271277 56.8693069,80.0585606 C47.6081738,83.8899935 36.9508223,81.7629839 29.87,74.67 C28.892456,73.692456 27.307544,73.692456 26.33,74.67 C25.352456,75.647544 25.352456,77.232456 26.33,78.21 C31.8948681,83.78916 39.4499766,86.9263289 47.33,86.93 L47.33,86.93 Z" id="Shape"></path>
        </g>
    </g>
</svg>